%TF.GenerationSoftware,KiCad,Pcbnew,9.0.3+dfsg-1*%
%TF.CreationDate,2026-08-24T07:44:06+02:00*%
%TF.ProjectId,cipher2-panel,63697068-6572-4322-9d70-616e656c2e6b,rev?*%
%TF.SameCoordinates,Original*%
%TF.FileFunction,Legend,Top*%
%TF.FilePolarity,Positive*%
%FSLAX46Y46*%
G04 Gerber Fmt 4.6, Leading zero omitted, Abs format (unit mm)*
G04 Created by KiCad (PCBNEW 9.0.3+dfsg-1) date 2026-08-24 07:44:06*
%MOMM*%
%LPD*%
G01*
G04 APERTURE LIST*
%ADD10C,0.204000*%
%ADD11C,0.153000*%
%ADD12C,0.150000*%
%ADD13C,0.187000*%
%ADD14C,1.891000*%
%ADD15C,2.600900*%
%ADD16C,0.120000*%
%ADD17C,0.300000*%
G04 APERTURE END LIST*
G36*
X3000000Y-13400000D02*
G01*
X13000000Y-13400000D01*
X13000000Y-14800000D01*
X3000000Y-14800000D01*
X3000000Y-13400000D01*
G37*
G36*
X40000000Y-35600000D02*
G01*
X52000000Y-35600000D01*
X52000000Y-37000000D01*
X40000000Y-37000000D01*
X40000000Y-35600000D01*
G37*
D10*
X27187146Y-11415963D02*
X27487146Y-11415963D01*
X27615717Y-12044534D02*
X27187146Y-12044534D01*
X27187146Y-12044534D02*
X27187146Y-10844534D01*
X27187146Y-10844534D02*
X27615717Y-10844534D01*
X28001431Y-12044534D02*
X28001431Y-10844534D01*
X28001431Y-10844534D02*
X28515716Y-12044534D01*
X28515716Y-12044534D02*
X28515716Y-10844534D01*
X29458572Y-11930249D02*
X29415715Y-11987392D01*
X29415715Y-11987392D02*
X29287144Y-12044534D01*
X29287144Y-12044534D02*
X29201430Y-12044534D01*
X29201430Y-12044534D02*
X29072858Y-11987392D01*
X29072858Y-11987392D02*
X28987144Y-11873106D01*
X28987144Y-11873106D02*
X28944287Y-11758820D01*
X28944287Y-11758820D02*
X28901430Y-11530249D01*
X28901430Y-11530249D02*
X28901430Y-11358820D01*
X28901430Y-11358820D02*
X28944287Y-11130249D01*
X28944287Y-11130249D02*
X28987144Y-11015963D01*
X28987144Y-11015963D02*
X29072858Y-10901677D01*
X29072858Y-10901677D02*
X29201430Y-10844534D01*
X29201430Y-10844534D02*
X29287144Y-10844534D01*
X29287144Y-10844534D02*
X29415715Y-10901677D01*
X29415715Y-10901677D02*
X29458572Y-10958820D01*
X30015714Y-10844534D02*
X30187143Y-10844534D01*
X30187143Y-10844534D02*
X30272857Y-10901677D01*
X30272857Y-10901677D02*
X30358571Y-11015963D01*
X30358571Y-11015963D02*
X30401428Y-11244534D01*
X30401428Y-11244534D02*
X30401428Y-11644534D01*
X30401428Y-11644534D02*
X30358571Y-11873106D01*
X30358571Y-11873106D02*
X30272857Y-11987392D01*
X30272857Y-11987392D02*
X30187143Y-12044534D01*
X30187143Y-12044534D02*
X30015714Y-12044534D01*
X30015714Y-12044534D02*
X29930000Y-11987392D01*
X29930000Y-11987392D02*
X29844286Y-11873106D01*
X29844286Y-11873106D02*
X29801429Y-11644534D01*
X29801429Y-11644534D02*
X29801429Y-11244534D01*
X29801429Y-11244534D02*
X29844286Y-11015963D01*
X29844286Y-11015963D02*
X29930000Y-10901677D01*
X29930000Y-10901677D02*
X30015714Y-10844534D01*
X30787142Y-12044534D02*
X30787142Y-10844534D01*
X30787142Y-10844534D02*
X31001427Y-10844534D01*
X31001427Y-10844534D02*
X31129999Y-10901677D01*
X31129999Y-10901677D02*
X31215713Y-11015963D01*
X31215713Y-11015963D02*
X31258570Y-11130249D01*
X31258570Y-11130249D02*
X31301427Y-11358820D01*
X31301427Y-11358820D02*
X31301427Y-11530249D01*
X31301427Y-11530249D02*
X31258570Y-11758820D01*
X31258570Y-11758820D02*
X31215713Y-11873106D01*
X31215713Y-11873106D02*
X31129999Y-11987392D01*
X31129999Y-11987392D02*
X31001427Y-12044534D01*
X31001427Y-12044534D02*
X30787142Y-12044534D01*
X31687141Y-11415963D02*
X31987141Y-11415963D01*
X32115712Y-12044534D02*
X31687141Y-12044534D01*
X31687141Y-12044534D02*
X31687141Y-10844534D01*
X31687141Y-10844534D02*
X32115712Y-10844534D01*
X33015711Y-12044534D02*
X32715711Y-11473106D01*
X32501426Y-12044534D02*
X32501426Y-10844534D01*
X32501426Y-10844534D02*
X32844283Y-10844534D01*
X32844283Y-10844534D02*
X32929997Y-10901677D01*
X32929997Y-10901677D02*
X32972854Y-10958820D01*
X32972854Y-10958820D02*
X33015711Y-11073106D01*
X33015711Y-11073106D02*
X33015711Y-11244534D01*
X33015711Y-11244534D02*
X32972854Y-11358820D01*
X32972854Y-11358820D02*
X32929997Y-11415963D01*
X32929997Y-11415963D02*
X32844283Y-11473106D01*
X32844283Y-11473106D02*
X32501426Y-11473106D01*
D11*
X59171258Y-8714285D02*
X59128401Y-8778571D01*
X59128401Y-8778571D02*
X59128401Y-8874999D01*
X59128401Y-8874999D02*
X59171258Y-8971428D01*
X59171258Y-8971428D02*
X59256972Y-9035713D01*
X59256972Y-9035713D02*
X59342686Y-9067856D01*
X59342686Y-9067856D02*
X59514115Y-9099999D01*
X59514115Y-9099999D02*
X59642686Y-9099999D01*
X59642686Y-9099999D02*
X59814115Y-9067856D01*
X59814115Y-9067856D02*
X59899829Y-9035713D01*
X59899829Y-9035713D02*
X59985544Y-8971428D01*
X59985544Y-8971428D02*
X60028401Y-8874999D01*
X60028401Y-8874999D02*
X60028401Y-8810713D01*
X60028401Y-8810713D02*
X59985544Y-8714285D01*
X59985544Y-8714285D02*
X59942686Y-8682142D01*
X59942686Y-8682142D02*
X59642686Y-8682142D01*
X59642686Y-8682142D02*
X59642686Y-8810713D01*
X60028401Y-8392856D02*
X59128401Y-8392856D01*
X59128401Y-8392856D02*
X60028401Y-8007142D01*
X60028401Y-8007142D02*
X59128401Y-8007142D01*
X60028401Y-7685713D02*
X59128401Y-7685713D01*
X59128401Y-7685713D02*
X59128401Y-7524999D01*
X59128401Y-7524999D02*
X59171258Y-7428570D01*
X59171258Y-7428570D02*
X59256972Y-7364285D01*
X59256972Y-7364285D02*
X59342686Y-7332142D01*
X59342686Y-7332142D02*
X59514115Y-7299999D01*
X59514115Y-7299999D02*
X59642686Y-7299999D01*
X59642686Y-7299999D02*
X59814115Y-7332142D01*
X59814115Y-7332142D02*
X59899829Y-7364285D01*
X59899829Y-7364285D02*
X59985544Y-7428570D01*
X59985544Y-7428570D02*
X60028401Y-7524999D01*
X60028401Y-7524999D02*
X60028401Y-7685713D01*
D12*
X86335715Y-39454819D02*
X86550001Y-40454819D01*
X86550001Y-40454819D02*
X86721429Y-39740533D01*
X86721429Y-39740533D02*
X86892858Y-40454819D01*
X86892858Y-40454819D02*
X87107144Y-39454819D01*
X87835715Y-40454819D02*
X87835715Y-39931009D01*
X87835715Y-39931009D02*
X87792857Y-39835771D01*
X87792857Y-39835771D02*
X87707143Y-39788152D01*
X87707143Y-39788152D02*
X87535715Y-39788152D01*
X87535715Y-39788152D02*
X87450000Y-39835771D01*
X87835715Y-40407200D02*
X87750000Y-40454819D01*
X87750000Y-40454819D02*
X87535715Y-40454819D01*
X87535715Y-40454819D02*
X87450000Y-40407200D01*
X87450000Y-40407200D02*
X87407143Y-40311961D01*
X87407143Y-40311961D02*
X87407143Y-40216723D01*
X87407143Y-40216723D02*
X87450000Y-40121485D01*
X87450000Y-40121485D02*
X87535715Y-40073866D01*
X87535715Y-40073866D02*
X87750000Y-40073866D01*
X87750000Y-40073866D02*
X87835715Y-40026247D01*
X88178572Y-39788152D02*
X88392858Y-40454819D01*
X88607143Y-39788152D02*
X88392858Y-40454819D01*
X88392858Y-40454819D02*
X88307143Y-40692914D01*
X88307143Y-40692914D02*
X88264286Y-40740533D01*
X88264286Y-40740533D02*
X88178572Y-40788152D01*
X88864286Y-39454819D02*
X89078572Y-40454819D01*
X89078572Y-40454819D02*
X89250000Y-39740533D01*
X89250000Y-39740533D02*
X89421429Y-40454819D01*
X89421429Y-40454819D02*
X89635715Y-39454819D01*
X90364286Y-40454819D02*
X90364286Y-39931009D01*
X90364286Y-39931009D02*
X90321428Y-39835771D01*
X90321428Y-39835771D02*
X90235714Y-39788152D01*
X90235714Y-39788152D02*
X90064286Y-39788152D01*
X90064286Y-39788152D02*
X89978571Y-39835771D01*
X90364286Y-40407200D02*
X90278571Y-40454819D01*
X90278571Y-40454819D02*
X90064286Y-40454819D01*
X90064286Y-40454819D02*
X89978571Y-40407200D01*
X89978571Y-40407200D02*
X89935714Y-40311961D01*
X89935714Y-40311961D02*
X89935714Y-40216723D01*
X89935714Y-40216723D02*
X89978571Y-40121485D01*
X89978571Y-40121485D02*
X90064286Y-40073866D01*
X90064286Y-40073866D02*
X90278571Y-40073866D01*
X90278571Y-40073866D02*
X90364286Y-40026247D01*
X90707143Y-39788152D02*
X90921429Y-40454819D01*
X91135714Y-39788152D02*
X90921429Y-40454819D01*
X90921429Y-40454819D02*
X90835714Y-40692914D01*
X90835714Y-40692914D02*
X90792857Y-40740533D01*
X90792857Y-40740533D02*
X90707143Y-40788152D01*
X91392857Y-39454819D02*
X91607143Y-40454819D01*
X91607143Y-40454819D02*
X91778571Y-39740533D01*
X91778571Y-39740533D02*
X91950000Y-40454819D01*
X91950000Y-40454819D02*
X92164286Y-39454819D01*
X92892857Y-40454819D02*
X92892857Y-39931009D01*
X92892857Y-39931009D02*
X92849999Y-39835771D01*
X92849999Y-39835771D02*
X92764285Y-39788152D01*
X92764285Y-39788152D02*
X92592857Y-39788152D01*
X92592857Y-39788152D02*
X92507142Y-39835771D01*
X92892857Y-40407200D02*
X92807142Y-40454819D01*
X92807142Y-40454819D02*
X92592857Y-40454819D01*
X92592857Y-40454819D02*
X92507142Y-40407200D01*
X92507142Y-40407200D02*
X92464285Y-40311961D01*
X92464285Y-40311961D02*
X92464285Y-40216723D01*
X92464285Y-40216723D02*
X92507142Y-40121485D01*
X92507142Y-40121485D02*
X92592857Y-40073866D01*
X92592857Y-40073866D02*
X92807142Y-40073866D01*
X92807142Y-40073866D02*
X92892857Y-40026247D01*
X93235714Y-39788152D02*
X93450000Y-40454819D01*
X93664285Y-39788152D02*
X93450000Y-40454819D01*
X93450000Y-40454819D02*
X93364285Y-40692914D01*
X93364285Y-40692914D02*
X93321428Y-40740533D01*
X93321428Y-40740533D02*
X93235714Y-40788152D01*
D13*
X67392857Y-9499156D02*
X67392857Y-8399156D01*
X67392857Y-8399156D02*
X67707143Y-8399156D01*
X67707143Y-8399156D02*
X67785714Y-8451537D01*
X67785714Y-8451537D02*
X67825000Y-8503918D01*
X67825000Y-8503918D02*
X67864286Y-8608680D01*
X67864286Y-8608680D02*
X67864286Y-8765823D01*
X67864286Y-8765823D02*
X67825000Y-8870585D01*
X67825000Y-8870585D02*
X67785714Y-8922966D01*
X67785714Y-8922966D02*
X67707143Y-8975347D01*
X67707143Y-8975347D02*
X67392857Y-8975347D01*
X68689286Y-9499156D02*
X68414286Y-8975347D01*
X68217857Y-9499156D02*
X68217857Y-8399156D01*
X68217857Y-8399156D02*
X68532143Y-8399156D01*
X68532143Y-8399156D02*
X68610714Y-8451537D01*
X68610714Y-8451537D02*
X68650000Y-8503918D01*
X68650000Y-8503918D02*
X68689286Y-8608680D01*
X68689286Y-8608680D02*
X68689286Y-8765823D01*
X68689286Y-8765823D02*
X68650000Y-8870585D01*
X68650000Y-8870585D02*
X68610714Y-8922966D01*
X68610714Y-8922966D02*
X68532143Y-8975347D01*
X68532143Y-8975347D02*
X68217857Y-8975347D01*
X69200000Y-8399156D02*
X69357143Y-8399156D01*
X69357143Y-8399156D02*
X69435714Y-8451537D01*
X69435714Y-8451537D02*
X69514286Y-8556299D01*
X69514286Y-8556299D02*
X69553571Y-8765823D01*
X69553571Y-8765823D02*
X69553571Y-9132490D01*
X69553571Y-9132490D02*
X69514286Y-9342014D01*
X69514286Y-9342014D02*
X69435714Y-9446776D01*
X69435714Y-9446776D02*
X69357143Y-9499156D01*
X69357143Y-9499156D02*
X69200000Y-9499156D01*
X69200000Y-9499156D02*
X69121429Y-9446776D01*
X69121429Y-9446776D02*
X69042857Y-9342014D01*
X69042857Y-9342014D02*
X69003571Y-9132490D01*
X69003571Y-9132490D02*
X69003571Y-8765823D01*
X69003571Y-8765823D02*
X69042857Y-8556299D01*
X69042857Y-8556299D02*
X69121429Y-8451537D01*
X69121429Y-8451537D02*
X69200000Y-8399156D01*
X70535714Y-9499156D02*
X70535714Y-8399156D01*
X70535714Y-8399156D02*
X70810714Y-9184871D01*
X70810714Y-9184871D02*
X71085714Y-8399156D01*
X71085714Y-8399156D02*
X71085714Y-9499156D01*
X71478571Y-9499156D02*
X71478571Y-8399156D01*
X72342857Y-9394395D02*
X72303571Y-9446776D01*
X72303571Y-9446776D02*
X72185714Y-9499156D01*
X72185714Y-9499156D02*
X72107142Y-9499156D01*
X72107142Y-9499156D02*
X71989285Y-9446776D01*
X71989285Y-9446776D02*
X71910714Y-9342014D01*
X71910714Y-9342014D02*
X71871428Y-9237252D01*
X71871428Y-9237252D02*
X71832142Y-9027728D01*
X71832142Y-9027728D02*
X71832142Y-8870585D01*
X71832142Y-8870585D02*
X71871428Y-8661061D01*
X71871428Y-8661061D02*
X71910714Y-8556299D01*
X71910714Y-8556299D02*
X71989285Y-8451537D01*
X71989285Y-8451537D02*
X72107142Y-8399156D01*
X72107142Y-8399156D02*
X72185714Y-8399156D01*
X72185714Y-8399156D02*
X72303571Y-8451537D01*
X72303571Y-8451537D02*
X72342857Y-8503918D01*
X73167857Y-9499156D02*
X72892857Y-8975347D01*
X72696428Y-9499156D02*
X72696428Y-8399156D01*
X72696428Y-8399156D02*
X73010714Y-8399156D01*
X73010714Y-8399156D02*
X73089285Y-8451537D01*
X73089285Y-8451537D02*
X73128571Y-8503918D01*
X73128571Y-8503918D02*
X73167857Y-8608680D01*
X73167857Y-8608680D02*
X73167857Y-8765823D01*
X73167857Y-8765823D02*
X73128571Y-8870585D01*
X73128571Y-8870585D02*
X73089285Y-8922966D01*
X73089285Y-8922966D02*
X73010714Y-8975347D01*
X73010714Y-8975347D02*
X72696428Y-8975347D01*
X73678571Y-8399156D02*
X73835714Y-8399156D01*
X73835714Y-8399156D02*
X73914285Y-8451537D01*
X73914285Y-8451537D02*
X73992857Y-8556299D01*
X73992857Y-8556299D02*
X74032142Y-8765823D01*
X74032142Y-8765823D02*
X74032142Y-9132490D01*
X74032142Y-9132490D02*
X73992857Y-9342014D01*
X73992857Y-9342014D02*
X73914285Y-9446776D01*
X73914285Y-9446776D02*
X73835714Y-9499156D01*
X73835714Y-9499156D02*
X73678571Y-9499156D01*
X73678571Y-9499156D02*
X73600000Y-9446776D01*
X73600000Y-9446776D02*
X73521428Y-9342014D01*
X73521428Y-9342014D02*
X73482142Y-9132490D01*
X73482142Y-9132490D02*
X73482142Y-8765823D01*
X73482142Y-8765823D02*
X73521428Y-8556299D01*
X73521428Y-8556299D02*
X73600000Y-8451537D01*
X73600000Y-8451537D02*
X73678571Y-8399156D01*
X75014285Y-9080109D02*
X75642857Y-9080109D01*
X77135714Y-9394395D02*
X77096428Y-9446776D01*
X77096428Y-9446776D02*
X76978571Y-9499156D01*
X76978571Y-9499156D02*
X76899999Y-9499156D01*
X76899999Y-9499156D02*
X76782142Y-9446776D01*
X76782142Y-9446776D02*
X76703571Y-9342014D01*
X76703571Y-9342014D02*
X76664285Y-9237252D01*
X76664285Y-9237252D02*
X76624999Y-9027728D01*
X76624999Y-9027728D02*
X76624999Y-8870585D01*
X76624999Y-8870585D02*
X76664285Y-8661061D01*
X76664285Y-8661061D02*
X76703571Y-8556299D01*
X76703571Y-8556299D02*
X76782142Y-8451537D01*
X76782142Y-8451537D02*
X76899999Y-8399156D01*
X76899999Y-8399156D02*
X76978571Y-8399156D01*
X76978571Y-8399156D02*
X77096428Y-8451537D01*
X77096428Y-8451537D02*
X77135714Y-8503918D01*
X77646428Y-8399156D02*
X77803571Y-8399156D01*
X77803571Y-8399156D02*
X77882142Y-8451537D01*
X77882142Y-8451537D02*
X77960714Y-8556299D01*
X77960714Y-8556299D02*
X77999999Y-8765823D01*
X77999999Y-8765823D02*
X77999999Y-9132490D01*
X77999999Y-9132490D02*
X77960714Y-9342014D01*
X77960714Y-9342014D02*
X77882142Y-9446776D01*
X77882142Y-9446776D02*
X77803571Y-9499156D01*
X77803571Y-9499156D02*
X77646428Y-9499156D01*
X77646428Y-9499156D02*
X77567857Y-9446776D01*
X77567857Y-9446776D02*
X77489285Y-9342014D01*
X77489285Y-9342014D02*
X77449999Y-9132490D01*
X77449999Y-9132490D02*
X77449999Y-8765823D01*
X77449999Y-8765823D02*
X77489285Y-8556299D01*
X77489285Y-8556299D02*
X77567857Y-8451537D01*
X77567857Y-8451537D02*
X77646428Y-8399156D01*
X78353571Y-9499156D02*
X78353571Y-8399156D01*
X78353571Y-8399156D02*
X78628571Y-9184871D01*
X78628571Y-9184871D02*
X78903571Y-8399156D01*
X78903571Y-8399156D02*
X78903571Y-9499156D01*
X79296428Y-9499156D02*
X79296428Y-8399156D01*
X79296428Y-8399156D02*
X79610714Y-8399156D01*
X79610714Y-8399156D02*
X79689285Y-8451537D01*
X79689285Y-8451537D02*
X79728571Y-8503918D01*
X79728571Y-8503918D02*
X79767857Y-8608680D01*
X79767857Y-8608680D02*
X79767857Y-8765823D01*
X79767857Y-8765823D02*
X79728571Y-8870585D01*
X79728571Y-8870585D02*
X79689285Y-8922966D01*
X79689285Y-8922966D02*
X79610714Y-8975347D01*
X79610714Y-8975347D02*
X79296428Y-8975347D01*
X80278571Y-8399156D02*
X80435714Y-8399156D01*
X80435714Y-8399156D02*
X80514285Y-8451537D01*
X80514285Y-8451537D02*
X80592857Y-8556299D01*
X80592857Y-8556299D02*
X80632142Y-8765823D01*
X80632142Y-8765823D02*
X80632142Y-9132490D01*
X80632142Y-9132490D02*
X80592857Y-9342014D01*
X80592857Y-9342014D02*
X80514285Y-9446776D01*
X80514285Y-9446776D02*
X80435714Y-9499156D01*
X80435714Y-9499156D02*
X80278571Y-9499156D01*
X80278571Y-9499156D02*
X80200000Y-9446776D01*
X80200000Y-9446776D02*
X80121428Y-9342014D01*
X80121428Y-9342014D02*
X80082142Y-9132490D01*
X80082142Y-9132490D02*
X80082142Y-8765823D01*
X80082142Y-8765823D02*
X80121428Y-8556299D01*
X80121428Y-8556299D02*
X80200000Y-8451537D01*
X80200000Y-8451537D02*
X80278571Y-8399156D01*
X80985714Y-9499156D02*
X80985714Y-8399156D01*
X80985714Y-8399156D02*
X81457143Y-9499156D01*
X81457143Y-9499156D02*
X81457143Y-8399156D01*
X81850000Y-8922966D02*
X82125000Y-8922966D01*
X82242857Y-9499156D02*
X81850000Y-9499156D01*
X81850000Y-9499156D02*
X81850000Y-8399156D01*
X81850000Y-8399156D02*
X82242857Y-8399156D01*
X82596429Y-9499156D02*
X82596429Y-8399156D01*
X82596429Y-8399156D02*
X83067858Y-9499156D01*
X83067858Y-9499156D02*
X83067858Y-8399156D01*
X83342858Y-8399156D02*
X83814287Y-8399156D01*
X83578572Y-9499156D02*
X83578572Y-8399156D01*
X84050000Y-9446776D02*
X84167858Y-9499156D01*
X84167858Y-9499156D02*
X84364286Y-9499156D01*
X84364286Y-9499156D02*
X84442858Y-9446776D01*
X84442858Y-9446776D02*
X84482143Y-9394395D01*
X84482143Y-9394395D02*
X84521429Y-9289633D01*
X84521429Y-9289633D02*
X84521429Y-9184871D01*
X84521429Y-9184871D02*
X84482143Y-9080109D01*
X84482143Y-9080109D02*
X84442858Y-9027728D01*
X84442858Y-9027728D02*
X84364286Y-8975347D01*
X84364286Y-8975347D02*
X84207143Y-8922966D01*
X84207143Y-8922966D02*
X84128572Y-8870585D01*
X84128572Y-8870585D02*
X84089286Y-8818204D01*
X84089286Y-8818204D02*
X84050000Y-8713442D01*
X84050000Y-8713442D02*
X84050000Y-8608680D01*
X84050000Y-8608680D02*
X84089286Y-8503918D01*
X84089286Y-8503918D02*
X84128572Y-8451537D01*
X84128572Y-8451537D02*
X84207143Y-8399156D01*
X84207143Y-8399156D02*
X84403572Y-8399156D01*
X84403572Y-8399156D02*
X84521429Y-8451537D01*
X85503571Y-9499156D02*
X85503571Y-8399156D01*
X85503571Y-8399156D02*
X85700000Y-8399156D01*
X85700000Y-8399156D02*
X85817857Y-8451537D01*
X85817857Y-8451537D02*
X85896428Y-8556299D01*
X85896428Y-8556299D02*
X85935714Y-8661061D01*
X85935714Y-8661061D02*
X85975000Y-8870585D01*
X85975000Y-8870585D02*
X85975000Y-9027728D01*
X85975000Y-9027728D02*
X85935714Y-9237252D01*
X85935714Y-9237252D02*
X85896428Y-9342014D01*
X85896428Y-9342014D02*
X85817857Y-9446776D01*
X85817857Y-9446776D02*
X85700000Y-9499156D01*
X85700000Y-9499156D02*
X85503571Y-9499156D01*
X86485714Y-8399156D02*
X86642857Y-8399156D01*
X86642857Y-8399156D02*
X86721428Y-8451537D01*
X86721428Y-8451537D02*
X86800000Y-8556299D01*
X86800000Y-8556299D02*
X86839285Y-8765823D01*
X86839285Y-8765823D02*
X86839285Y-9132490D01*
X86839285Y-9132490D02*
X86800000Y-9342014D01*
X86800000Y-9342014D02*
X86721428Y-9446776D01*
X86721428Y-9446776D02*
X86642857Y-9499156D01*
X86642857Y-9499156D02*
X86485714Y-9499156D01*
X86485714Y-9499156D02*
X86407143Y-9446776D01*
X86407143Y-9446776D02*
X86328571Y-9342014D01*
X86328571Y-9342014D02*
X86289285Y-9132490D01*
X86289285Y-9132490D02*
X86289285Y-8765823D01*
X86289285Y-8765823D02*
X86328571Y-8556299D01*
X86328571Y-8556299D02*
X86407143Y-8451537D01*
X86407143Y-8451537D02*
X86485714Y-8399156D01*
X87114286Y-8399156D02*
X87310714Y-9499156D01*
X87310714Y-9499156D02*
X87467857Y-8713442D01*
X87467857Y-8713442D02*
X87625000Y-9499156D01*
X87625000Y-9499156D02*
X87821429Y-8399156D01*
X88135714Y-9499156D02*
X88135714Y-8399156D01*
X88135714Y-8399156D02*
X88607143Y-9499156D01*
X88607143Y-9499156D02*
X88607143Y-8399156D01*
D11*
X30016972Y-8151785D02*
X30059829Y-8055357D01*
X30059829Y-8055357D02*
X30102686Y-8023214D01*
X30102686Y-8023214D02*
X30188401Y-7991071D01*
X30188401Y-7991071D02*
X30316972Y-7991071D01*
X30316972Y-7991071D02*
X30402686Y-8023214D01*
X30402686Y-8023214D02*
X30445544Y-8055357D01*
X30445544Y-8055357D02*
X30488401Y-8119642D01*
X30488401Y-8119642D02*
X30488401Y-8376785D01*
X30488401Y-8376785D02*
X29588401Y-8376785D01*
X29588401Y-8376785D02*
X29588401Y-8151785D01*
X29588401Y-8151785D02*
X29631258Y-8087500D01*
X29631258Y-8087500D02*
X29674115Y-8055357D01*
X29674115Y-8055357D02*
X29759829Y-8023214D01*
X29759829Y-8023214D02*
X29845544Y-8023214D01*
X29845544Y-8023214D02*
X29931258Y-8055357D01*
X29931258Y-8055357D02*
X29974115Y-8087500D01*
X29974115Y-8087500D02*
X30016972Y-8151785D01*
X30016972Y-8151785D02*
X30016972Y-8376785D01*
D14*
G36*
X11552517Y-19578983D02*
G01*
X12168376Y-22053676D01*
X10969705Y-23104042D01*
X10644752Y-22712204D01*
X4763555Y-29504573D01*
X13546797Y-29721350D01*
X3592423Y-32071638D01*
X2191971Y-29371228D01*
X11552517Y-19578983D01*
G37*
G36*
X13358034Y-33846832D02*
G01*
X12400199Y-29679634D01*
X13878759Y-18628439D01*
X15447446Y-19754044D01*
X13358034Y-33846832D01*
G37*
G36*
X25043820Y-22278648D02*
G01*
X25279148Y-24412158D01*
X17017133Y-27737573D01*
X16641610Y-32946944D01*
X14798541Y-30979555D01*
X15316410Y-27371063D01*
X17045173Y-27371063D01*
X23083588Y-23587509D01*
X17437219Y-21929271D01*
X17045173Y-27371063D01*
X15316410Y-27371063D01*
X16266087Y-20753754D01*
X17812242Y-19837477D01*
X25043820Y-22278648D01*
G37*
G36*
X25711251Y-27779290D02*
G01*
X24854056Y-33846832D01*
X23896221Y-29679634D01*
X24159588Y-27729379D01*
X20210584Y-27587840D01*
X24288267Y-26754252D01*
X25374782Y-18628439D01*
X26831312Y-19837477D01*
X25901516Y-26421263D01*
X29710825Y-25637586D01*
X30926019Y-17278606D01*
X31883854Y-21445804D01*
X30405293Y-32496254D01*
X28892685Y-31287961D01*
X29385872Y-27904440D01*
X25711251Y-27779290D01*
G37*
G36*
X34696774Y-28179323D02*
G01*
X42595282Y-34721392D01*
X32640909Y-29571617D01*
X31240457Y-26871207D01*
X40601003Y-19578983D01*
X41216861Y-22053676D01*
X40018191Y-23104042D01*
X39693238Y-22379215D01*
X34724813Y-26346024D01*
X39637660Y-27104374D01*
X34696774Y-28179323D01*
G37*
G36*
X50014623Y-22278648D02*
G01*
X50249951Y-24412158D01*
X44777324Y-27279435D01*
X53230105Y-33554815D01*
X41987936Y-27745768D01*
X41612413Y-32946944D01*
X39769344Y-30979555D01*
X40241777Y-27687662D01*
X41993444Y-27687662D01*
X48054391Y-23587509D01*
X42408021Y-21929271D01*
X41993444Y-27687662D01*
X40241777Y-27687662D01*
X41236889Y-20753754D01*
X42783044Y-19837477D01*
X50014623Y-22278648D01*
G37*
G36*
X49237039Y-26670818D02*
G01*
X52922676Y-24929147D01*
X54620042Y-26845879D01*
X49237039Y-26670818D01*
G37*
D11*
X9065544Y-9067856D02*
X9065544Y-8553571D01*
X9408401Y-8810713D02*
X8722686Y-8810713D01*
X8508401Y-7910714D02*
X8508401Y-8232142D01*
X8508401Y-8232142D02*
X8936972Y-8264285D01*
X8936972Y-8264285D02*
X8894115Y-8232142D01*
X8894115Y-8232142D02*
X8851258Y-8167857D01*
X8851258Y-8167857D02*
X8851258Y-8007142D01*
X8851258Y-8007142D02*
X8894115Y-7942857D01*
X8894115Y-7942857D02*
X8936972Y-7910714D01*
X8936972Y-7910714D02*
X9022686Y-7878571D01*
X9022686Y-7878571D02*
X9236972Y-7878571D01*
X9236972Y-7878571D02*
X9322686Y-7910714D01*
X9322686Y-7910714D02*
X9365544Y-7942857D01*
X9365544Y-7942857D02*
X9408401Y-8007142D01*
X9408401Y-8007142D02*
X9408401Y-8167857D01*
X9408401Y-8167857D02*
X9365544Y-8232142D01*
X9365544Y-8232142D02*
X9322686Y-8264285D01*
X8508401Y-7685714D02*
X9408401Y-7460714D01*
X9408401Y-7460714D02*
X8508401Y-7235714D01*
X14445544Y-9003571D02*
X14488401Y-8907143D01*
X14488401Y-8907143D02*
X14488401Y-8746428D01*
X14488401Y-8746428D02*
X14445544Y-8682143D01*
X14445544Y-8682143D02*
X14402686Y-8650000D01*
X14402686Y-8650000D02*
X14316972Y-8617857D01*
X14316972Y-8617857D02*
X14231258Y-8617857D01*
X14231258Y-8617857D02*
X14145544Y-8650000D01*
X14145544Y-8650000D02*
X14102686Y-8682143D01*
X14102686Y-8682143D02*
X14059829Y-8746428D01*
X14059829Y-8746428D02*
X14016972Y-8875000D01*
X14016972Y-8875000D02*
X13974115Y-8939285D01*
X13974115Y-8939285D02*
X13931258Y-8971428D01*
X13931258Y-8971428D02*
X13845544Y-9003571D01*
X13845544Y-9003571D02*
X13759829Y-9003571D01*
X13759829Y-9003571D02*
X13674115Y-8971428D01*
X13674115Y-8971428D02*
X13631258Y-8939285D01*
X13631258Y-8939285D02*
X13588401Y-8875000D01*
X13588401Y-8875000D02*
X13588401Y-8714285D01*
X13588401Y-8714285D02*
X13631258Y-8617857D01*
X14402686Y-7942857D02*
X14445544Y-7975000D01*
X14445544Y-7975000D02*
X14488401Y-8071428D01*
X14488401Y-8071428D02*
X14488401Y-8135714D01*
X14488401Y-8135714D02*
X14445544Y-8232143D01*
X14445544Y-8232143D02*
X14359829Y-8296428D01*
X14359829Y-8296428D02*
X14274115Y-8328571D01*
X14274115Y-8328571D02*
X14102686Y-8360714D01*
X14102686Y-8360714D02*
X13974115Y-8360714D01*
X13974115Y-8360714D02*
X13802686Y-8328571D01*
X13802686Y-8328571D02*
X13716972Y-8296428D01*
X13716972Y-8296428D02*
X13631258Y-8232143D01*
X13631258Y-8232143D02*
X13588401Y-8135714D01*
X13588401Y-8135714D02*
X13588401Y-8071428D01*
X13588401Y-8071428D02*
X13631258Y-7975000D01*
X13631258Y-7975000D02*
X13674115Y-7942857D01*
X14488401Y-7332143D02*
X14488401Y-7653571D01*
X14488401Y-7653571D02*
X13588401Y-7653571D01*
X52365544Y-8778571D02*
X52408401Y-8682143D01*
X52408401Y-8682143D02*
X52408401Y-8521428D01*
X52408401Y-8521428D02*
X52365544Y-8457143D01*
X52365544Y-8457143D02*
X52322686Y-8425000D01*
X52322686Y-8425000D02*
X52236972Y-8392857D01*
X52236972Y-8392857D02*
X52151258Y-8392857D01*
X52151258Y-8392857D02*
X52065544Y-8425000D01*
X52065544Y-8425000D02*
X52022686Y-8457143D01*
X52022686Y-8457143D02*
X51979829Y-8521428D01*
X51979829Y-8521428D02*
X51936972Y-8650000D01*
X51936972Y-8650000D02*
X51894115Y-8714285D01*
X51894115Y-8714285D02*
X51851258Y-8746428D01*
X51851258Y-8746428D02*
X51765544Y-8778571D01*
X51765544Y-8778571D02*
X51679829Y-8778571D01*
X51679829Y-8778571D02*
X51594115Y-8746428D01*
X51594115Y-8746428D02*
X51551258Y-8714285D01*
X51551258Y-8714285D02*
X51508401Y-8650000D01*
X51508401Y-8650000D02*
X51508401Y-8489285D01*
X51508401Y-8489285D02*
X51551258Y-8392857D01*
X51508401Y-8167857D02*
X52408401Y-8007143D01*
X52408401Y-8007143D02*
X51765544Y-7878571D01*
X51765544Y-7878571D02*
X52408401Y-7750000D01*
X52408401Y-7750000D02*
X51508401Y-7589286D01*
X24028401Y-40819642D02*
X23128401Y-40819642D01*
X23128401Y-40819642D02*
X23128401Y-40658928D01*
X23128401Y-40658928D02*
X23171258Y-40562499D01*
X23171258Y-40562499D02*
X23256972Y-40498214D01*
X23256972Y-40498214D02*
X23342686Y-40466071D01*
X23342686Y-40466071D02*
X23514115Y-40433928D01*
X23514115Y-40433928D02*
X23642686Y-40433928D01*
X23642686Y-40433928D02*
X23814115Y-40466071D01*
X23814115Y-40466071D02*
X23899829Y-40498214D01*
X23899829Y-40498214D02*
X23985544Y-40562499D01*
X23985544Y-40562499D02*
X24028401Y-40658928D01*
X24028401Y-40658928D02*
X24028401Y-40819642D01*
X24028401Y-39791071D02*
X24028401Y-40176785D01*
X24028401Y-39983928D02*
X23128401Y-39983928D01*
X23128401Y-39983928D02*
X23256972Y-40048214D01*
X23256972Y-40048214D02*
X23342686Y-40112499D01*
X23342686Y-40112499D02*
X23385544Y-40176785D01*
X23128401Y-39373214D02*
X23128401Y-39308928D01*
X23128401Y-39308928D02*
X23171258Y-39244642D01*
X23171258Y-39244642D02*
X23214115Y-39212500D01*
X23214115Y-39212500D02*
X23299829Y-39180357D01*
X23299829Y-39180357D02*
X23471258Y-39148214D01*
X23471258Y-39148214D02*
X23685544Y-39148214D01*
X23685544Y-39148214D02*
X23856972Y-39180357D01*
X23856972Y-39180357D02*
X23942686Y-39212500D01*
X23942686Y-39212500D02*
X23985544Y-39244642D01*
X23985544Y-39244642D02*
X24028401Y-39308928D01*
X24028401Y-39308928D02*
X24028401Y-39373214D01*
X24028401Y-39373214D02*
X23985544Y-39437500D01*
X23985544Y-39437500D02*
X23942686Y-39469642D01*
X23942686Y-39469642D02*
X23856972Y-39501785D01*
X23856972Y-39501785D02*
X23685544Y-39533928D01*
X23685544Y-39533928D02*
X23471258Y-39533928D01*
X23471258Y-39533928D02*
X23299829Y-39501785D01*
X23299829Y-39501785D02*
X23214115Y-39469642D01*
X23214115Y-39469642D02*
X23171258Y-39437500D01*
X23171258Y-39437500D02*
X23128401Y-39373214D01*
X26225544Y-40867856D02*
X26225544Y-40353571D01*
X26568401Y-40610713D02*
X25882686Y-40610713D01*
X25668401Y-39710714D02*
X25668401Y-40032142D01*
X25668401Y-40032142D02*
X26096972Y-40064285D01*
X26096972Y-40064285D02*
X26054115Y-40032142D01*
X26054115Y-40032142D02*
X26011258Y-39967857D01*
X26011258Y-39967857D02*
X26011258Y-39807142D01*
X26011258Y-39807142D02*
X26054115Y-39742857D01*
X26054115Y-39742857D02*
X26096972Y-39710714D01*
X26096972Y-39710714D02*
X26182686Y-39678571D01*
X26182686Y-39678571D02*
X26396972Y-39678571D01*
X26396972Y-39678571D02*
X26482686Y-39710714D01*
X26482686Y-39710714D02*
X26525544Y-39742857D01*
X26525544Y-39742857D02*
X26568401Y-39807142D01*
X26568401Y-39807142D02*
X26568401Y-39967857D01*
X26568401Y-39967857D02*
X26525544Y-40032142D01*
X26525544Y-40032142D02*
X26482686Y-40064285D01*
X25668401Y-39485714D02*
X26568401Y-39260714D01*
X26568401Y-39260714D02*
X25668401Y-39035714D01*
X17028401Y-8810714D02*
X16128401Y-8810714D01*
X17028401Y-8489285D02*
X16128401Y-8489285D01*
X16128401Y-8489285D02*
X17028401Y-8103571D01*
X17028401Y-8103571D02*
X16128401Y-8103571D01*
X16128401Y-7878571D02*
X16128401Y-7492857D01*
X17028401Y-7685714D02*
X16128401Y-7685714D01*
X28251258Y-40514285D02*
X28208401Y-40578571D01*
X28208401Y-40578571D02*
X28208401Y-40674999D01*
X28208401Y-40674999D02*
X28251258Y-40771428D01*
X28251258Y-40771428D02*
X28336972Y-40835713D01*
X28336972Y-40835713D02*
X28422686Y-40867856D01*
X28422686Y-40867856D02*
X28594115Y-40899999D01*
X28594115Y-40899999D02*
X28722686Y-40899999D01*
X28722686Y-40899999D02*
X28894115Y-40867856D01*
X28894115Y-40867856D02*
X28979829Y-40835713D01*
X28979829Y-40835713D02*
X29065544Y-40771428D01*
X29065544Y-40771428D02*
X29108401Y-40674999D01*
X29108401Y-40674999D02*
X29108401Y-40610713D01*
X29108401Y-40610713D02*
X29065544Y-40514285D01*
X29065544Y-40514285D02*
X29022686Y-40482142D01*
X29022686Y-40482142D02*
X28722686Y-40482142D01*
X28722686Y-40482142D02*
X28722686Y-40610713D01*
X29108401Y-40192856D02*
X28208401Y-40192856D01*
X28208401Y-40192856D02*
X29108401Y-39807142D01*
X29108401Y-39807142D02*
X28208401Y-39807142D01*
X29108401Y-39485713D02*
X28208401Y-39485713D01*
X28208401Y-39485713D02*
X28208401Y-39324999D01*
X28208401Y-39324999D02*
X28251258Y-39228570D01*
X28251258Y-39228570D02*
X28336972Y-39164285D01*
X28336972Y-39164285D02*
X28422686Y-39132142D01*
X28422686Y-39132142D02*
X28594115Y-39099999D01*
X28594115Y-39099999D02*
X28722686Y-39099999D01*
X28722686Y-39099999D02*
X28894115Y-39132142D01*
X28894115Y-39132142D02*
X28979829Y-39164285D01*
X28979829Y-39164285D02*
X29065544Y-39228570D01*
X29065544Y-39228570D02*
X29108401Y-39324999D01*
X29108401Y-39324999D02*
X29108401Y-39485713D01*
X18948401Y-40498213D02*
X18048401Y-40498213D01*
X18048401Y-40498213D02*
X18048401Y-40337499D01*
X18048401Y-40337499D02*
X18091258Y-40241070D01*
X18091258Y-40241070D02*
X18176972Y-40176785D01*
X18176972Y-40176785D02*
X18262686Y-40144642D01*
X18262686Y-40144642D02*
X18434115Y-40112499D01*
X18434115Y-40112499D02*
X18562686Y-40112499D01*
X18562686Y-40112499D02*
X18734115Y-40144642D01*
X18734115Y-40144642D02*
X18819829Y-40176785D01*
X18819829Y-40176785D02*
X18905544Y-40241070D01*
X18905544Y-40241070D02*
X18948401Y-40337499D01*
X18948401Y-40337499D02*
X18948401Y-40498213D01*
X18048401Y-39694642D02*
X18048401Y-39630356D01*
X18048401Y-39630356D02*
X18091258Y-39566070D01*
X18091258Y-39566070D02*
X18134115Y-39533928D01*
X18134115Y-39533928D02*
X18219829Y-39501785D01*
X18219829Y-39501785D02*
X18391258Y-39469642D01*
X18391258Y-39469642D02*
X18605544Y-39469642D01*
X18605544Y-39469642D02*
X18776972Y-39501785D01*
X18776972Y-39501785D02*
X18862686Y-39533928D01*
X18862686Y-39533928D02*
X18905544Y-39566070D01*
X18905544Y-39566070D02*
X18948401Y-39630356D01*
X18948401Y-39630356D02*
X18948401Y-39694642D01*
X18948401Y-39694642D02*
X18905544Y-39758928D01*
X18905544Y-39758928D02*
X18862686Y-39791070D01*
X18862686Y-39791070D02*
X18776972Y-39823213D01*
X18776972Y-39823213D02*
X18605544Y-39855356D01*
X18605544Y-39855356D02*
X18391258Y-39855356D01*
X18391258Y-39855356D02*
X18219829Y-39823213D01*
X18219829Y-39823213D02*
X18134115Y-39791070D01*
X18134115Y-39791070D02*
X18091258Y-39758928D01*
X18091258Y-39758928D02*
X18048401Y-39694642D01*
X57488401Y-9051785D02*
X57488401Y-9373213D01*
X57488401Y-9373213D02*
X56588401Y-9373213D01*
X57016972Y-8826784D02*
X57016972Y-8601784D01*
X57488401Y-8505356D02*
X57488401Y-8826784D01*
X57488401Y-8826784D02*
X56588401Y-8826784D01*
X56588401Y-8826784D02*
X56588401Y-8505356D01*
X57488401Y-8216070D02*
X56588401Y-8216070D01*
X56588401Y-8216070D02*
X56588401Y-8055356D01*
X56588401Y-8055356D02*
X56631258Y-7958927D01*
X56631258Y-7958927D02*
X56716972Y-7894642D01*
X56716972Y-7894642D02*
X56802686Y-7862499D01*
X56802686Y-7862499D02*
X56974115Y-7830356D01*
X56974115Y-7830356D02*
X57102686Y-7830356D01*
X57102686Y-7830356D02*
X57274115Y-7862499D01*
X57274115Y-7862499D02*
X57359829Y-7894642D01*
X57359829Y-7894642D02*
X57445544Y-7958927D01*
X57445544Y-7958927D02*
X57488401Y-8055356D01*
X57488401Y-8055356D02*
X57488401Y-8216070D01*
X57145544Y-7541070D02*
X57145544Y-7026785D01*
X57488401Y-7283927D02*
X56802686Y-7283927D01*
X32985544Y-8778571D02*
X33028401Y-8682143D01*
X33028401Y-8682143D02*
X33028401Y-8521428D01*
X33028401Y-8521428D02*
X32985544Y-8457143D01*
X32985544Y-8457143D02*
X32942686Y-8425000D01*
X32942686Y-8425000D02*
X32856972Y-8392857D01*
X32856972Y-8392857D02*
X32771258Y-8392857D01*
X32771258Y-8392857D02*
X32685544Y-8425000D01*
X32685544Y-8425000D02*
X32642686Y-8457143D01*
X32642686Y-8457143D02*
X32599829Y-8521428D01*
X32599829Y-8521428D02*
X32556972Y-8650000D01*
X32556972Y-8650000D02*
X32514115Y-8714285D01*
X32514115Y-8714285D02*
X32471258Y-8746428D01*
X32471258Y-8746428D02*
X32385544Y-8778571D01*
X32385544Y-8778571D02*
X32299829Y-8778571D01*
X32299829Y-8778571D02*
X32214115Y-8746428D01*
X32214115Y-8746428D02*
X32171258Y-8714285D01*
X32171258Y-8714285D02*
X32128401Y-8650000D01*
X32128401Y-8650000D02*
X32128401Y-8489285D01*
X32128401Y-8489285D02*
X32171258Y-8392857D01*
X32128401Y-8167857D02*
X33028401Y-8007143D01*
X33028401Y-8007143D02*
X32385544Y-7878571D01*
X32385544Y-7878571D02*
X33028401Y-7750000D01*
X33028401Y-7750000D02*
X32128401Y-7589286D01*
D10*
X53774288Y-11415963D02*
X53902859Y-11473106D01*
X53902859Y-11473106D02*
X53945716Y-11530249D01*
X53945716Y-11530249D02*
X53988573Y-11644534D01*
X53988573Y-11644534D02*
X53988573Y-11815963D01*
X53988573Y-11815963D02*
X53945716Y-11930249D01*
X53945716Y-11930249D02*
X53902859Y-11987392D01*
X53902859Y-11987392D02*
X53817145Y-12044534D01*
X53817145Y-12044534D02*
X53474288Y-12044534D01*
X53474288Y-12044534D02*
X53474288Y-10844534D01*
X53474288Y-10844534D02*
X53774288Y-10844534D01*
X53774288Y-10844534D02*
X53860002Y-10901677D01*
X53860002Y-10901677D02*
X53902859Y-10958820D01*
X53902859Y-10958820D02*
X53945716Y-11073106D01*
X53945716Y-11073106D02*
X53945716Y-11187392D01*
X53945716Y-11187392D02*
X53902859Y-11301677D01*
X53902859Y-11301677D02*
X53860002Y-11358820D01*
X53860002Y-11358820D02*
X53774288Y-11415963D01*
X53774288Y-11415963D02*
X53474288Y-11415963D01*
X54374287Y-10844534D02*
X54374287Y-11815963D01*
X54374287Y-11815963D02*
X54417144Y-11930249D01*
X54417144Y-11930249D02*
X54460001Y-11987392D01*
X54460001Y-11987392D02*
X54545715Y-12044534D01*
X54545715Y-12044534D02*
X54717144Y-12044534D01*
X54717144Y-12044534D02*
X54802858Y-11987392D01*
X54802858Y-11987392D02*
X54845715Y-11930249D01*
X54845715Y-11930249D02*
X54888572Y-11815963D01*
X54888572Y-11815963D02*
X54888572Y-10844534D01*
X55188572Y-10844534D02*
X55702857Y-10844534D01*
X55445714Y-12044534D02*
X55445714Y-10844534D01*
X55874286Y-10844534D02*
X56388571Y-10844534D01*
X56131428Y-12044534D02*
X56131428Y-10844534D01*
X56859999Y-10844534D02*
X57031428Y-10844534D01*
X57031428Y-10844534D02*
X57117142Y-10901677D01*
X57117142Y-10901677D02*
X57202856Y-11015963D01*
X57202856Y-11015963D02*
X57245713Y-11244534D01*
X57245713Y-11244534D02*
X57245713Y-11644534D01*
X57245713Y-11644534D02*
X57202856Y-11873106D01*
X57202856Y-11873106D02*
X57117142Y-11987392D01*
X57117142Y-11987392D02*
X57031428Y-12044534D01*
X57031428Y-12044534D02*
X56859999Y-12044534D01*
X56859999Y-12044534D02*
X56774285Y-11987392D01*
X56774285Y-11987392D02*
X56688571Y-11873106D01*
X56688571Y-11873106D02*
X56645714Y-11644534D01*
X56645714Y-11644534D02*
X56645714Y-11244534D01*
X56645714Y-11244534D02*
X56688571Y-11015963D01*
X56688571Y-11015963D02*
X56774285Y-10901677D01*
X56774285Y-10901677D02*
X56859999Y-10844534D01*
X57631427Y-12044534D02*
X57631427Y-10844534D01*
X57631427Y-10844534D02*
X58145712Y-12044534D01*
X58145712Y-12044534D02*
X58145712Y-10844534D01*
D11*
X54091258Y-8714285D02*
X54048401Y-8778571D01*
X54048401Y-8778571D02*
X54048401Y-8874999D01*
X54048401Y-8874999D02*
X54091258Y-8971428D01*
X54091258Y-8971428D02*
X54176972Y-9035713D01*
X54176972Y-9035713D02*
X54262686Y-9067856D01*
X54262686Y-9067856D02*
X54434115Y-9099999D01*
X54434115Y-9099999D02*
X54562686Y-9099999D01*
X54562686Y-9099999D02*
X54734115Y-9067856D01*
X54734115Y-9067856D02*
X54819829Y-9035713D01*
X54819829Y-9035713D02*
X54905544Y-8971428D01*
X54905544Y-8971428D02*
X54948401Y-8874999D01*
X54948401Y-8874999D02*
X54948401Y-8810713D01*
X54948401Y-8810713D02*
X54905544Y-8714285D01*
X54905544Y-8714285D02*
X54862686Y-8682142D01*
X54862686Y-8682142D02*
X54562686Y-8682142D01*
X54562686Y-8682142D02*
X54562686Y-8810713D01*
X54948401Y-8392856D02*
X54048401Y-8392856D01*
X54048401Y-8392856D02*
X54948401Y-8007142D01*
X54948401Y-8007142D02*
X54048401Y-8007142D01*
X54948401Y-7685713D02*
X54048401Y-7685713D01*
X54048401Y-7685713D02*
X54048401Y-7524999D01*
X54048401Y-7524999D02*
X54091258Y-7428570D01*
X54091258Y-7428570D02*
X54176972Y-7364285D01*
X54176972Y-7364285D02*
X54262686Y-7332142D01*
X54262686Y-7332142D02*
X54434115Y-7299999D01*
X54434115Y-7299999D02*
X54562686Y-7299999D01*
X54562686Y-7299999D02*
X54734115Y-7332142D01*
X54734115Y-7332142D02*
X54819829Y-7364285D01*
X54819829Y-7364285D02*
X54905544Y-7428570D01*
X54905544Y-7428570D02*
X54948401Y-7524999D01*
X54948401Y-7524999D02*
X54948401Y-7685713D01*
D10*
X10522860Y-10844534D02*
X11037145Y-10844534D01*
X10780002Y-12044534D02*
X10780002Y-10844534D01*
X11851430Y-12044534D02*
X11551430Y-11473106D01*
X11337145Y-12044534D02*
X11337145Y-10844534D01*
X11337145Y-10844534D02*
X11680002Y-10844534D01*
X11680002Y-10844534D02*
X11765716Y-10901677D01*
X11765716Y-10901677D02*
X11808573Y-10958820D01*
X11808573Y-10958820D02*
X11851430Y-11073106D01*
X11851430Y-11073106D02*
X11851430Y-11244534D01*
X11851430Y-11244534D02*
X11808573Y-11358820D01*
X11808573Y-11358820D02*
X11765716Y-11415963D01*
X11765716Y-11415963D02*
X11680002Y-11473106D01*
X11680002Y-11473106D02*
X11337145Y-11473106D01*
X12194287Y-11701677D02*
X12622858Y-11701677D01*
X12108573Y-12044534D02*
X12408572Y-10844534D01*
X12408572Y-10844534D02*
X12708572Y-12044534D01*
X13522857Y-11930249D02*
X13480000Y-11987392D01*
X13480000Y-11987392D02*
X13351429Y-12044534D01*
X13351429Y-12044534D02*
X13265715Y-12044534D01*
X13265715Y-12044534D02*
X13137143Y-11987392D01*
X13137143Y-11987392D02*
X13051429Y-11873106D01*
X13051429Y-11873106D02*
X13008572Y-11758820D01*
X13008572Y-11758820D02*
X12965715Y-11530249D01*
X12965715Y-11530249D02*
X12965715Y-11358820D01*
X12965715Y-11358820D02*
X13008572Y-11130249D01*
X13008572Y-11130249D02*
X13051429Y-11015963D01*
X13051429Y-11015963D02*
X13137143Y-10901677D01*
X13137143Y-10901677D02*
X13265715Y-10844534D01*
X13265715Y-10844534D02*
X13351429Y-10844534D01*
X13351429Y-10844534D02*
X13480000Y-10901677D01*
X13480000Y-10901677D02*
X13522857Y-10958820D01*
X13908571Y-12044534D02*
X13908571Y-10844534D01*
X14422856Y-12044534D02*
X14037142Y-11358820D01*
X14422856Y-10844534D02*
X13908571Y-11530249D01*
X15108570Y-11415963D02*
X15237141Y-11473106D01*
X15237141Y-11473106D02*
X15279998Y-11530249D01*
X15279998Y-11530249D02*
X15322855Y-11644534D01*
X15322855Y-11644534D02*
X15322855Y-11815963D01*
X15322855Y-11815963D02*
X15279998Y-11930249D01*
X15279998Y-11930249D02*
X15237141Y-11987392D01*
X15237141Y-11987392D02*
X15151427Y-12044534D01*
X15151427Y-12044534D02*
X14808570Y-12044534D01*
X14808570Y-12044534D02*
X14808570Y-10844534D01*
X14808570Y-10844534D02*
X15108570Y-10844534D01*
X15108570Y-10844534D02*
X15194284Y-10901677D01*
X15194284Y-10901677D02*
X15237141Y-10958820D01*
X15237141Y-10958820D02*
X15279998Y-11073106D01*
X15279998Y-11073106D02*
X15279998Y-11187392D01*
X15279998Y-11187392D02*
X15237141Y-11301677D01*
X15237141Y-11301677D02*
X15194284Y-11358820D01*
X15194284Y-11358820D02*
X15108570Y-11415963D01*
X15108570Y-11415963D02*
X14808570Y-11415963D01*
X15665712Y-11701677D02*
X16094283Y-11701677D01*
X15579998Y-12044534D02*
X15879997Y-10844534D01*
X15879997Y-10844534D02*
X16179997Y-12044534D01*
X16908568Y-12044534D02*
X16479997Y-12044534D01*
X16479997Y-12044534D02*
X16479997Y-10844534D01*
X17637139Y-12044534D02*
X17208568Y-12044534D01*
X17208568Y-12044534D02*
X17208568Y-10844534D01*
D11*
X25151258Y-8360713D02*
X25151258Y-8039285D01*
X25408401Y-8424999D02*
X24508401Y-8199999D01*
X24508401Y-8199999D02*
X25408401Y-7974999D01*
D10*
X9050002Y-37487392D02*
X9178573Y-37544534D01*
X9178573Y-37544534D02*
X9392859Y-37544534D01*
X9392859Y-37544534D02*
X9478573Y-37487392D01*
X9478573Y-37487392D02*
X9521430Y-37430249D01*
X9521430Y-37430249D02*
X9564287Y-37315963D01*
X9564287Y-37315963D02*
X9564287Y-37201677D01*
X9564287Y-37201677D02*
X9521430Y-37087392D01*
X9521430Y-37087392D02*
X9478573Y-37030249D01*
X9478573Y-37030249D02*
X9392859Y-36973106D01*
X9392859Y-36973106D02*
X9221430Y-36915963D01*
X9221430Y-36915963D02*
X9135716Y-36858820D01*
X9135716Y-36858820D02*
X9092859Y-36801677D01*
X9092859Y-36801677D02*
X9050002Y-36687392D01*
X9050002Y-36687392D02*
X9050002Y-36573106D01*
X9050002Y-36573106D02*
X9092859Y-36458820D01*
X9092859Y-36458820D02*
X9135716Y-36401677D01*
X9135716Y-36401677D02*
X9221430Y-36344534D01*
X9221430Y-36344534D02*
X9435716Y-36344534D01*
X9435716Y-36344534D02*
X9564287Y-36401677D01*
X9950001Y-37544534D02*
X9950001Y-36344534D01*
X9950001Y-36344534D02*
X10292858Y-36344534D01*
X10292858Y-36344534D02*
X10378572Y-36401677D01*
X10378572Y-36401677D02*
X10421429Y-36458820D01*
X10421429Y-36458820D02*
X10464286Y-36573106D01*
X10464286Y-36573106D02*
X10464286Y-36744534D01*
X10464286Y-36744534D02*
X10421429Y-36858820D01*
X10421429Y-36858820D02*
X10378572Y-36915963D01*
X10378572Y-36915963D02*
X10292858Y-36973106D01*
X10292858Y-36973106D02*
X9950001Y-36973106D01*
X10807143Y-37201677D02*
X11235714Y-37201677D01*
X10721429Y-37544534D02*
X11021428Y-36344534D01*
X11021428Y-36344534D02*
X11321428Y-37544534D01*
X12135713Y-37544534D02*
X11835713Y-36973106D01*
X11621428Y-37544534D02*
X11621428Y-36344534D01*
X11621428Y-36344534D02*
X11964285Y-36344534D01*
X11964285Y-36344534D02*
X12049999Y-36401677D01*
X12049999Y-36401677D02*
X12092856Y-36458820D01*
X12092856Y-36458820D02*
X12135713Y-36573106D01*
X12135713Y-36573106D02*
X12135713Y-36744534D01*
X12135713Y-36744534D02*
X12092856Y-36858820D01*
X12092856Y-36858820D02*
X12049999Y-36915963D01*
X12049999Y-36915963D02*
X11964285Y-36973106D01*
X11964285Y-36973106D02*
X11621428Y-36973106D01*
X12521427Y-36915963D02*
X12821427Y-36915963D01*
X12949998Y-37544534D02*
X12521427Y-37544534D01*
X12521427Y-37544534D02*
X12521427Y-36344534D01*
X12521427Y-36344534D02*
X12949998Y-36344534D01*
D11*
X21488401Y-40498213D02*
X20588401Y-40498213D01*
X20588401Y-40498213D02*
X20588401Y-40337499D01*
X20588401Y-40337499D02*
X20631258Y-40241070D01*
X20631258Y-40241070D02*
X20716972Y-40176785D01*
X20716972Y-40176785D02*
X20802686Y-40144642D01*
X20802686Y-40144642D02*
X20974115Y-40112499D01*
X20974115Y-40112499D02*
X21102686Y-40112499D01*
X21102686Y-40112499D02*
X21274115Y-40144642D01*
X21274115Y-40144642D02*
X21359829Y-40176785D01*
X21359829Y-40176785D02*
X21445544Y-40241070D01*
X21445544Y-40241070D02*
X21488401Y-40337499D01*
X21488401Y-40337499D02*
X21488401Y-40498213D01*
X20588401Y-39533928D02*
X20588401Y-39662499D01*
X20588401Y-39662499D02*
X20631258Y-39726785D01*
X20631258Y-39726785D02*
X20674115Y-39758928D01*
X20674115Y-39758928D02*
X20802686Y-39823213D01*
X20802686Y-39823213D02*
X20974115Y-39855356D01*
X20974115Y-39855356D02*
X21316972Y-39855356D01*
X21316972Y-39855356D02*
X21402686Y-39823213D01*
X21402686Y-39823213D02*
X21445544Y-39791070D01*
X21445544Y-39791070D02*
X21488401Y-39726785D01*
X21488401Y-39726785D02*
X21488401Y-39598213D01*
X21488401Y-39598213D02*
X21445544Y-39533928D01*
X21445544Y-39533928D02*
X21402686Y-39501785D01*
X21402686Y-39501785D02*
X21316972Y-39469642D01*
X21316972Y-39469642D02*
X21102686Y-39469642D01*
X21102686Y-39469642D02*
X21016972Y-39501785D01*
X21016972Y-39501785D02*
X20974115Y-39533928D01*
X20974115Y-39533928D02*
X20931258Y-39598213D01*
X20931258Y-39598213D02*
X20931258Y-39726785D01*
X20931258Y-39726785D02*
X20974115Y-39791070D01*
X20974115Y-39791070D02*
X21016972Y-39823213D01*
X21016972Y-39823213D02*
X21102686Y-39855356D01*
X27091258Y-8714285D02*
X27048401Y-8778571D01*
X27048401Y-8778571D02*
X27048401Y-8874999D01*
X27048401Y-8874999D02*
X27091258Y-8971428D01*
X27091258Y-8971428D02*
X27176972Y-9035713D01*
X27176972Y-9035713D02*
X27262686Y-9067856D01*
X27262686Y-9067856D02*
X27434115Y-9099999D01*
X27434115Y-9099999D02*
X27562686Y-9099999D01*
X27562686Y-9099999D02*
X27734115Y-9067856D01*
X27734115Y-9067856D02*
X27819829Y-9035713D01*
X27819829Y-9035713D02*
X27905544Y-8971428D01*
X27905544Y-8971428D02*
X27948401Y-8874999D01*
X27948401Y-8874999D02*
X27948401Y-8810713D01*
X27948401Y-8810713D02*
X27905544Y-8714285D01*
X27905544Y-8714285D02*
X27862686Y-8682142D01*
X27862686Y-8682142D02*
X27562686Y-8682142D01*
X27562686Y-8682142D02*
X27562686Y-8810713D01*
X27948401Y-8392856D02*
X27048401Y-8392856D01*
X27048401Y-8392856D02*
X27948401Y-8007142D01*
X27948401Y-8007142D02*
X27048401Y-8007142D01*
X27948401Y-7685713D02*
X27048401Y-7685713D01*
X27048401Y-7685713D02*
X27048401Y-7524999D01*
X27048401Y-7524999D02*
X27091258Y-7428570D01*
X27091258Y-7428570D02*
X27176972Y-7364285D01*
X27176972Y-7364285D02*
X27262686Y-7332142D01*
X27262686Y-7332142D02*
X27434115Y-7299999D01*
X27434115Y-7299999D02*
X27562686Y-7299999D01*
X27562686Y-7299999D02*
X27734115Y-7332142D01*
X27734115Y-7332142D02*
X27819829Y-7364285D01*
X27819829Y-7364285D02*
X27905544Y-7428570D01*
X27905544Y-7428570D02*
X27948401Y-7524999D01*
X27948401Y-7524999D02*
X27948401Y-7685713D01*
X18711258Y-8714285D02*
X18668401Y-8778571D01*
X18668401Y-8778571D02*
X18668401Y-8874999D01*
X18668401Y-8874999D02*
X18711258Y-8971428D01*
X18711258Y-8971428D02*
X18796972Y-9035713D01*
X18796972Y-9035713D02*
X18882686Y-9067856D01*
X18882686Y-9067856D02*
X19054115Y-9099999D01*
X19054115Y-9099999D02*
X19182686Y-9099999D01*
X19182686Y-9099999D02*
X19354115Y-9067856D01*
X19354115Y-9067856D02*
X19439829Y-9035713D01*
X19439829Y-9035713D02*
X19525544Y-8971428D01*
X19525544Y-8971428D02*
X19568401Y-8874999D01*
X19568401Y-8874999D02*
X19568401Y-8810713D01*
X19568401Y-8810713D02*
X19525544Y-8714285D01*
X19525544Y-8714285D02*
X19482686Y-8682142D01*
X19482686Y-8682142D02*
X19182686Y-8682142D01*
X19182686Y-8682142D02*
X19182686Y-8810713D01*
X19568401Y-8392856D02*
X18668401Y-8392856D01*
X18668401Y-8392856D02*
X19568401Y-8007142D01*
X19568401Y-8007142D02*
X18668401Y-8007142D01*
X19568401Y-7685713D02*
X18668401Y-7685713D01*
X18668401Y-7685713D02*
X18668401Y-7524999D01*
X18668401Y-7524999D02*
X18711258Y-7428570D01*
X18711258Y-7428570D02*
X18796972Y-7364285D01*
X18796972Y-7364285D02*
X18882686Y-7332142D01*
X18882686Y-7332142D02*
X19054115Y-7299999D01*
X19054115Y-7299999D02*
X19182686Y-7299999D01*
X19182686Y-7299999D02*
X19354115Y-7332142D01*
X19354115Y-7332142D02*
X19439829Y-7364285D01*
X19439829Y-7364285D02*
X19525544Y-7428570D01*
X19525544Y-7428570D02*
X19568401Y-7524999D01*
X19568401Y-7524999D02*
X19568401Y-7685713D01*
X16408401Y-40498213D02*
X15508401Y-40498213D01*
X15508401Y-40498213D02*
X15508401Y-40337499D01*
X15508401Y-40337499D02*
X15551258Y-40241070D01*
X15551258Y-40241070D02*
X15636972Y-40176785D01*
X15636972Y-40176785D02*
X15722686Y-40144642D01*
X15722686Y-40144642D02*
X15894115Y-40112499D01*
X15894115Y-40112499D02*
X16022686Y-40112499D01*
X16022686Y-40112499D02*
X16194115Y-40144642D01*
X16194115Y-40144642D02*
X16279829Y-40176785D01*
X16279829Y-40176785D02*
X16365544Y-40241070D01*
X16365544Y-40241070D02*
X16408401Y-40337499D01*
X16408401Y-40337499D02*
X16408401Y-40498213D01*
X16408401Y-39469642D02*
X16408401Y-39855356D01*
X16408401Y-39662499D02*
X15508401Y-39662499D01*
X15508401Y-39662499D02*
X15636972Y-39726785D01*
X15636972Y-39726785D02*
X15722686Y-39791070D01*
X15722686Y-39791070D02*
X15765544Y-39855356D01*
X34711258Y-8714285D02*
X34668401Y-8778571D01*
X34668401Y-8778571D02*
X34668401Y-8874999D01*
X34668401Y-8874999D02*
X34711258Y-8971428D01*
X34711258Y-8971428D02*
X34796972Y-9035713D01*
X34796972Y-9035713D02*
X34882686Y-9067856D01*
X34882686Y-9067856D02*
X35054115Y-9099999D01*
X35054115Y-9099999D02*
X35182686Y-9099999D01*
X35182686Y-9099999D02*
X35354115Y-9067856D01*
X35354115Y-9067856D02*
X35439829Y-9035713D01*
X35439829Y-9035713D02*
X35525544Y-8971428D01*
X35525544Y-8971428D02*
X35568401Y-8874999D01*
X35568401Y-8874999D02*
X35568401Y-8810713D01*
X35568401Y-8810713D02*
X35525544Y-8714285D01*
X35525544Y-8714285D02*
X35482686Y-8682142D01*
X35482686Y-8682142D02*
X35182686Y-8682142D01*
X35182686Y-8682142D02*
X35182686Y-8810713D01*
X35568401Y-8392856D02*
X34668401Y-8392856D01*
X34668401Y-8392856D02*
X35568401Y-8007142D01*
X35568401Y-8007142D02*
X34668401Y-8007142D01*
X35568401Y-7685713D02*
X34668401Y-7685713D01*
X34668401Y-7685713D02*
X34668401Y-7524999D01*
X34668401Y-7524999D02*
X34711258Y-7428570D01*
X34711258Y-7428570D02*
X34796972Y-7364285D01*
X34796972Y-7364285D02*
X34882686Y-7332142D01*
X34882686Y-7332142D02*
X35054115Y-7299999D01*
X35054115Y-7299999D02*
X35182686Y-7299999D01*
X35182686Y-7299999D02*
X35354115Y-7332142D01*
X35354115Y-7332142D02*
X35439829Y-7364285D01*
X35439829Y-7364285D02*
X35525544Y-7428570D01*
X35525544Y-7428570D02*
X35568401Y-7524999D01*
X35568401Y-7524999D02*
X35568401Y-7685713D01*
X11905544Y-9019642D02*
X11948401Y-8923214D01*
X11948401Y-8923214D02*
X11948401Y-8762499D01*
X11948401Y-8762499D02*
X11905544Y-8698214D01*
X11905544Y-8698214D02*
X11862686Y-8666071D01*
X11862686Y-8666071D02*
X11776972Y-8633928D01*
X11776972Y-8633928D02*
X11691258Y-8633928D01*
X11691258Y-8633928D02*
X11605544Y-8666071D01*
X11605544Y-8666071D02*
X11562686Y-8698214D01*
X11562686Y-8698214D02*
X11519829Y-8762499D01*
X11519829Y-8762499D02*
X11476972Y-8891071D01*
X11476972Y-8891071D02*
X11434115Y-8955356D01*
X11434115Y-8955356D02*
X11391258Y-8987499D01*
X11391258Y-8987499D02*
X11305544Y-9019642D01*
X11305544Y-9019642D02*
X11219829Y-9019642D01*
X11219829Y-9019642D02*
X11134115Y-8987499D01*
X11134115Y-8987499D02*
X11091258Y-8955356D01*
X11091258Y-8955356D02*
X11048401Y-8891071D01*
X11048401Y-8891071D02*
X11048401Y-8730356D01*
X11048401Y-8730356D02*
X11091258Y-8633928D01*
X11948401Y-8344642D02*
X11048401Y-8344642D01*
X11048401Y-8344642D02*
X11048401Y-8183928D01*
X11048401Y-8183928D02*
X11091258Y-8087499D01*
X11091258Y-8087499D02*
X11176972Y-8023214D01*
X11176972Y-8023214D02*
X11262686Y-7991071D01*
X11262686Y-7991071D02*
X11434115Y-7958928D01*
X11434115Y-7958928D02*
X11562686Y-7958928D01*
X11562686Y-7958928D02*
X11734115Y-7991071D01*
X11734115Y-7991071D02*
X11819829Y-8023214D01*
X11819829Y-8023214D02*
X11905544Y-8087499D01*
X11905544Y-8087499D02*
X11948401Y-8183928D01*
X11948401Y-8183928D02*
X11948401Y-8344642D01*
X11691258Y-7701785D02*
X11691258Y-7380357D01*
X11948401Y-7766071D02*
X11048401Y-7541071D01*
X11048401Y-7541071D02*
X11948401Y-7316071D01*
D15*
G36*
X58522459Y-32754170D02*
G01*
X63807980Y-32754170D01*
X63807980Y-34721400D01*
X56820074Y-34721400D01*
X56820074Y-32754170D01*
X59339219Y-28770530D01*
X60826051Y-26331985D01*
X61513251Y-24976600D01*
X61865938Y-24071720D01*
X62069269Y-23191300D01*
X62135896Y-22302238D01*
X62067664Y-21384052D01*
X61876731Y-20650323D01*
X61569123Y-20059391D01*
X61160755Y-19619628D01*
X60652743Y-19344508D01*
X60016867Y-19245860D01*
X59311730Y-19336000D01*
X58545185Y-19619839D01*
X57774817Y-20074608D01*
X56912356Y-20754069D01*
X56912356Y-18393394D01*
X57709116Y-17903616D01*
X58472187Y-17560395D01*
X59239489Y-17348122D01*
X59986566Y-17278630D01*
X60826180Y-17370516D01*
X61546036Y-17631165D01*
X62166079Y-18046577D01*
X62701980Y-18614707D01*
X63151733Y-19333413D01*
X63469280Y-20142764D01*
X63663409Y-21061139D01*
X63730849Y-22115761D01*
X63647166Y-23203156D01*
X63387893Y-24317624D01*
X62965030Y-25415820D01*
X62274318Y-26746947D01*
X61022321Y-28811514D01*
X58522459Y-32754170D01*
G37*
D12*
X49074819Y-4333333D02*
X49789104Y-4333333D01*
X49789104Y-4333333D02*
X49931961Y-4380952D01*
X49931961Y-4380952D02*
X50027200Y-4476190D01*
X50027200Y-4476190D02*
X50074819Y-4619047D01*
X50074819Y-4619047D02*
X50074819Y-4714285D01*
X49408152Y-3428571D02*
X50074819Y-3428571D01*
X49027200Y-3666666D02*
X49741485Y-3904761D01*
X49741485Y-3904761D02*
X49741485Y-3285714D01*
X88833333Y-33624819D02*
X88500000Y-33148628D01*
X88261905Y-33624819D02*
X88261905Y-32624819D01*
X88261905Y-32624819D02*
X88642857Y-32624819D01*
X88642857Y-32624819D02*
X88738095Y-32672438D01*
X88738095Y-32672438D02*
X88785714Y-32720057D01*
X88785714Y-32720057D02*
X88833333Y-32815295D01*
X88833333Y-32815295D02*
X88833333Y-32958152D01*
X88833333Y-32958152D02*
X88785714Y-33053390D01*
X88785714Y-33053390D02*
X88738095Y-33101009D01*
X88738095Y-33101009D02*
X88642857Y-33148628D01*
X88642857Y-33148628D02*
X88261905Y-33148628D01*
X89214286Y-32720057D02*
X89261905Y-32672438D01*
X89261905Y-32672438D02*
X89357143Y-32624819D01*
X89357143Y-32624819D02*
X89595238Y-32624819D01*
X89595238Y-32624819D02*
X89690476Y-32672438D01*
X89690476Y-32672438D02*
X89738095Y-32720057D01*
X89738095Y-32720057D02*
X89785714Y-32815295D01*
X89785714Y-32815295D02*
X89785714Y-32910533D01*
X89785714Y-32910533D02*
X89738095Y-33053390D01*
X89738095Y-33053390D02*
X89166667Y-33624819D01*
X89166667Y-33624819D02*
X89785714Y-33624819D01*
X95738095Y195180D02*
X95738095Y1195180D01*
X95738095Y718990D02*
X96309523Y718990D01*
X96309523Y195180D02*
X96309523Y1195180D01*
X96738095Y1099942D02*
X96785714Y1147561D01*
X96785714Y1147561D02*
X96880952Y1195180D01*
X96880952Y1195180D02*
X97119047Y1195180D01*
X97119047Y1195180D02*
X97214285Y1147561D01*
X97214285Y1147561D02*
X97261904Y1099942D01*
X97261904Y1099942D02*
X97309523Y1004704D01*
X97309523Y1004704D02*
X97309523Y909466D01*
X97309523Y909466D02*
X97261904Y766609D01*
X97261904Y766609D02*
X96690476Y195180D01*
X96690476Y195180D02*
X97309523Y195180D01*
X74833333Y-33509580D02*
X74785714Y-33557200D01*
X74785714Y-33557200D02*
X74642857Y-33604819D01*
X74642857Y-33604819D02*
X74547619Y-33604819D01*
X74547619Y-33604819D02*
X74404762Y-33557200D01*
X74404762Y-33557200D02*
X74309524Y-33461961D01*
X74309524Y-33461961D02*
X74261905Y-33366723D01*
X74261905Y-33366723D02*
X74214286Y-33176247D01*
X74214286Y-33176247D02*
X74214286Y-33033390D01*
X74214286Y-33033390D02*
X74261905Y-32842914D01*
X74261905Y-32842914D02*
X74309524Y-32747676D01*
X74309524Y-32747676D02*
X74404762Y-32652438D01*
X74404762Y-32652438D02*
X74547619Y-32604819D01*
X74547619Y-32604819D02*
X74642857Y-32604819D01*
X74642857Y-32604819D02*
X74785714Y-32652438D01*
X74785714Y-32652438D02*
X74833333Y-32700057D01*
X75785714Y-33604819D02*
X75214286Y-33604819D01*
X75500000Y-33604819D02*
X75500000Y-32604819D01*
X75500000Y-32604819D02*
X75404762Y-32747676D01*
X75404762Y-32747676D02*
X75309524Y-32842914D01*
X75309524Y-32842914D02*
X75214286Y-32890533D01*
X22074819Y-4333333D02*
X22789104Y-4333333D01*
X22789104Y-4333333D02*
X22931961Y-4380952D01*
X22931961Y-4380952D02*
X23027200Y-4476190D01*
X23027200Y-4476190D02*
X23074819Y-4619047D01*
X23074819Y-4619047D02*
X23074819Y-4714285D01*
X22074819Y-3952380D02*
X22074819Y-3333333D01*
X22074819Y-3333333D02*
X22455771Y-3666666D01*
X22455771Y-3666666D02*
X22455771Y-3523809D01*
X22455771Y-3523809D02*
X22503390Y-3428571D01*
X22503390Y-3428571D02*
X22551009Y-3380952D01*
X22551009Y-3380952D02*
X22646247Y-3333333D01*
X22646247Y-3333333D02*
X22884342Y-3333333D01*
X22884342Y-3333333D02*
X22979580Y-3380952D01*
X22979580Y-3380952D02*
X23027200Y-3428571D01*
X23027200Y-3428571D02*
X23074819Y-3523809D01*
X23074819Y-3523809D02*
X23074819Y-3809523D01*
X23074819Y-3809523D02*
X23027200Y-3904761D01*
X23027200Y-3904761D02*
X22979580Y-3952380D01*
X13074819Y-37333333D02*
X13789104Y-37333333D01*
X13789104Y-37333333D02*
X13931961Y-37380952D01*
X13931961Y-37380952D02*
X14027200Y-37476190D01*
X14027200Y-37476190D02*
X14074819Y-37619047D01*
X14074819Y-37619047D02*
X14074819Y-37714285D01*
X13170057Y-36904761D02*
X13122438Y-36857142D01*
X13122438Y-36857142D02*
X13074819Y-36761904D01*
X13074819Y-36761904D02*
X13074819Y-36523809D01*
X13074819Y-36523809D02*
X13122438Y-36428571D01*
X13122438Y-36428571D02*
X13170057Y-36380952D01*
X13170057Y-36380952D02*
X13265295Y-36333333D01*
X13265295Y-36333333D02*
X13360533Y-36333333D01*
X13360533Y-36333333D02*
X13503390Y-36380952D01*
X13503390Y-36380952D02*
X14074819Y-36952380D01*
X14074819Y-36952380D02*
X14074819Y-36333333D01*
X67833333Y-33624819D02*
X67500000Y-33148628D01*
X67261905Y-33624819D02*
X67261905Y-32624819D01*
X67261905Y-32624819D02*
X67642857Y-32624819D01*
X67642857Y-32624819D02*
X67738095Y-32672438D01*
X67738095Y-32672438D02*
X67785714Y-32720057D01*
X67785714Y-32720057D02*
X67833333Y-32815295D01*
X67833333Y-32815295D02*
X67833333Y-32958152D01*
X67833333Y-32958152D02*
X67785714Y-33053390D01*
X67785714Y-33053390D02*
X67738095Y-33101009D01*
X67738095Y-33101009D02*
X67642857Y-33148628D01*
X67642857Y-33148628D02*
X67261905Y-33148628D01*
X68785714Y-33624819D02*
X68214286Y-33624819D01*
X68500000Y-33624819D02*
X68500000Y-32624819D01*
X68500000Y-32624819D02*
X68404762Y-32767676D01*
X68404762Y-32767676D02*
X68309524Y-32862914D01*
X68309524Y-32862914D02*
X68214286Y-32910533D01*
X95738095Y-34804819D02*
X95738095Y-33804819D01*
X95738095Y-34281009D02*
X96309523Y-34281009D01*
X96309523Y-34804819D02*
X96309523Y-33804819D01*
X97214285Y-34138152D02*
X97214285Y-34804819D01*
X96976190Y-33757200D02*
X96738095Y-34471485D01*
X96738095Y-34471485D02*
X97357142Y-34471485D01*
X6074819Y-4333333D02*
X6789104Y-4333333D01*
X6789104Y-4333333D02*
X6931961Y-4380952D01*
X6931961Y-4380952D02*
X7027200Y-4476190D01*
X7027200Y-4476190D02*
X7074819Y-4619047D01*
X7074819Y-4619047D02*
X7074819Y-4714285D01*
X7074819Y-3333333D02*
X7074819Y-3904761D01*
X7074819Y-3619047D02*
X6074819Y-3619047D01*
X6074819Y-3619047D02*
X6217676Y-3714285D01*
X6217676Y-3714285D02*
X6312914Y-3809523D01*
X6312914Y-3809523D02*
X6360533Y-3904761D01*
X99632295Y-13932380D02*
X99251342Y-14199047D01*
X99632295Y-14389523D02*
X98832295Y-14389523D01*
X98832295Y-14389523D02*
X98832295Y-14084761D01*
X98832295Y-14084761D02*
X98870390Y-14008571D01*
X98870390Y-14008571D02*
X98908485Y-13970476D01*
X98908485Y-13970476D02*
X98984676Y-13932380D01*
X98984676Y-13932380D02*
X99098961Y-13932380D01*
X99098961Y-13932380D02*
X99175152Y-13970476D01*
X99175152Y-13970476D02*
X99213247Y-14008571D01*
X99213247Y-14008571D02*
X99251342Y-14084761D01*
X99251342Y-14084761D02*
X99251342Y-14389523D01*
X99403723Y-13627619D02*
X99403723Y-13246666D01*
X99632295Y-13703809D02*
X98832295Y-13437142D01*
X98832295Y-13437142D02*
X99632295Y-13170476D01*
X98832295Y-12980000D02*
X99632295Y-12789524D01*
X99632295Y-12789524D02*
X99060866Y-12637143D01*
X99060866Y-12637143D02*
X99632295Y-12484762D01*
X99632295Y-12484762D02*
X98832295Y-12294286D01*
X99632295Y-29210475D02*
X98832295Y-29210475D01*
X98832295Y-29210475D02*
X98832295Y-29019999D01*
X98832295Y-29019999D02*
X98870390Y-28905713D01*
X98870390Y-28905713D02*
X98946580Y-28829523D01*
X98946580Y-28829523D02*
X99022771Y-28791428D01*
X99022771Y-28791428D02*
X99175152Y-28753332D01*
X99175152Y-28753332D02*
X99289438Y-28753332D01*
X99289438Y-28753332D02*
X99441819Y-28791428D01*
X99441819Y-28791428D02*
X99518009Y-28829523D01*
X99518009Y-28829523D02*
X99594200Y-28905713D01*
X99594200Y-28905713D02*
X99632295Y-29019999D01*
X99632295Y-29019999D02*
X99632295Y-29210475D01*
X99632295Y-27991428D02*
X99632295Y-28448571D01*
X99632295Y-28219999D02*
X98832295Y-28219999D01*
X98832295Y-28219999D02*
X98946580Y-28296190D01*
X98946580Y-28296190D02*
X99022771Y-28372380D01*
X99022771Y-28372380D02*
X99060866Y-28448571D01*
X2738095Y-34804819D02*
X2738095Y-33804819D01*
X2738095Y-34281009D02*
X3309523Y-34281009D01*
X3309523Y-34804819D02*
X3309523Y-33804819D01*
X3690476Y-33804819D02*
X4309523Y-33804819D01*
X4309523Y-33804819D02*
X3976190Y-34185771D01*
X3976190Y-34185771D02*
X4119047Y-34185771D01*
X4119047Y-34185771D02*
X4214285Y-34233390D01*
X4214285Y-34233390D02*
X4261904Y-34281009D01*
X4261904Y-34281009D02*
X4309523Y-34376247D01*
X4309523Y-34376247D02*
X4309523Y-34614342D01*
X4309523Y-34614342D02*
X4261904Y-34709580D01*
X4261904Y-34709580D02*
X4214285Y-34757200D01*
X4214285Y-34757200D02*
X4119047Y-34804819D01*
X4119047Y-34804819D02*
X3833333Y-34804819D01*
X3833333Y-34804819D02*
X3738095Y-34757200D01*
X3738095Y-34757200D02*
X3690476Y-34709580D01*
X81833333Y-33624819D02*
X81500000Y-33148628D01*
X81261905Y-33624819D02*
X81261905Y-32624819D01*
X81261905Y-32624819D02*
X81642857Y-32624819D01*
X81642857Y-32624819D02*
X81738095Y-32672438D01*
X81738095Y-32672438D02*
X81785714Y-32720057D01*
X81785714Y-32720057D02*
X81833333Y-32815295D01*
X81833333Y-32815295D02*
X81833333Y-32958152D01*
X81833333Y-32958152D02*
X81785714Y-33053390D01*
X81785714Y-33053390D02*
X81738095Y-33101009D01*
X81738095Y-33101009D02*
X81642857Y-33148628D01*
X81642857Y-33148628D02*
X81261905Y-33148628D01*
X82166667Y-32624819D02*
X82785714Y-32624819D01*
X82785714Y-32624819D02*
X82452381Y-33005771D01*
X82452381Y-33005771D02*
X82595238Y-33005771D01*
X82595238Y-33005771D02*
X82690476Y-33053390D01*
X82690476Y-33053390D02*
X82738095Y-33101009D01*
X82738095Y-33101009D02*
X82785714Y-33196247D01*
X82785714Y-33196247D02*
X82785714Y-33434342D01*
X82785714Y-33434342D02*
X82738095Y-33529580D01*
X82738095Y-33529580D02*
X82690476Y-33577200D01*
X82690476Y-33577200D02*
X82595238Y-33624819D01*
X82595238Y-33624819D02*
X82309524Y-33624819D01*
X82309524Y-33624819D02*
X82214286Y-33577200D01*
X82214286Y-33577200D02*
X82166667Y-33529580D01*
X66857143Y-37607200D02*
X67000000Y-37654819D01*
X67000000Y-37654819D02*
X67238095Y-37654819D01*
X67238095Y-37654819D02*
X67333333Y-37607200D01*
X67333333Y-37607200D02*
X67380952Y-37559580D01*
X67380952Y-37559580D02*
X67428571Y-37464342D01*
X67428571Y-37464342D02*
X67428571Y-37369104D01*
X67428571Y-37369104D02*
X67380952Y-37273866D01*
X67380952Y-37273866D02*
X67333333Y-37226247D01*
X67333333Y-37226247D02*
X67238095Y-37178628D01*
X67238095Y-37178628D02*
X67047619Y-37131009D01*
X67047619Y-37131009D02*
X66952381Y-37083390D01*
X66952381Y-37083390D02*
X66904762Y-37035771D01*
X66904762Y-37035771D02*
X66857143Y-36940533D01*
X66857143Y-36940533D02*
X66857143Y-36845295D01*
X66857143Y-36845295D02*
X66904762Y-36750057D01*
X66904762Y-36750057D02*
X66952381Y-36702438D01*
X66952381Y-36702438D02*
X67047619Y-36654819D01*
X67047619Y-36654819D02*
X67285714Y-36654819D01*
X67285714Y-36654819D02*
X67428571Y-36702438D01*
X68142857Y-36654819D02*
X68142857Y-37369104D01*
X68142857Y-37369104D02*
X68095238Y-37511961D01*
X68095238Y-37511961D02*
X68000000Y-37607200D01*
X68000000Y-37607200D02*
X67857143Y-37654819D01*
X67857143Y-37654819D02*
X67761905Y-37654819D01*
X69142857Y-37654819D02*
X68571429Y-37654819D01*
X68857143Y-37654819D02*
X68857143Y-36654819D01*
X68857143Y-36654819D02*
X68761905Y-36797676D01*
X68761905Y-36797676D02*
X68666667Y-36892914D01*
X68666667Y-36892914D02*
X68571429Y-36940533D01*
X2738095Y195180D02*
X2738095Y1195180D01*
X2738095Y718990D02*
X3309523Y718990D01*
X3309523Y195180D02*
X3309523Y1195180D01*
X4309523Y195180D02*
X3738095Y195180D01*
X4023809Y195180D02*
X4023809Y1195180D01*
X4023809Y1195180D02*
X3928571Y1052323D01*
X3928571Y1052323D02*
X3833333Y957085D01*
X3833333Y957085D02*
X3738095Y909466D01*
D16*
%TO.C,J4*%
X50620000Y-5380000D02*
X50620000Y-4000000D01*
X52000000Y-5380000D02*
X50620000Y-5380000D01*
X53270000Y-2620000D02*
X61000000Y-2620000D01*
X53270000Y-5380000D02*
X53270000Y-2620000D01*
X53270000Y-5380000D02*
X61000000Y-5380000D01*
X61000000Y-5380000D02*
X61000000Y-2620000D01*
%TO.C,R2*%
X88272936Y-34090000D02*
X89727064Y-34090000D01*
X88272936Y-35910000D02*
X89727064Y-35910000D01*
%TO.C,C1*%
X74288748Y-34090000D02*
X75711252Y-34090000D01*
X74288748Y-35910000D02*
X75711252Y-35910000D01*
%TO.C,J3*%
X23620000Y-5380000D02*
X23620000Y-4000000D01*
X25000000Y-5380000D02*
X23620000Y-5380000D01*
X26270000Y-2620000D02*
X36540000Y-2620000D01*
X26270000Y-5380000D02*
X26270000Y-2620000D01*
X26270000Y-5380000D02*
X36540000Y-5380000D01*
X36540000Y-5380000D02*
X36540000Y-2620000D01*
%TO.C,J2*%
X14620000Y-38380000D02*
X14620000Y-37000000D01*
X16000000Y-38380000D02*
X14620000Y-38380000D01*
X17270000Y-35620000D02*
X30080000Y-35620000D01*
X17270000Y-38380000D02*
X17270000Y-35620000D01*
X17270000Y-38380000D02*
X30080000Y-38380000D01*
X30080000Y-38380000D02*
X30080000Y-35620000D01*
%TO.C,R1*%
X67272936Y-34090000D02*
X68727064Y-34090000D01*
X67272936Y-35910000D02*
X68727064Y-35910000D01*
%TO.C,J1*%
X7620000Y-5380000D02*
X7620000Y-4000000D01*
X9000000Y-5380000D02*
X7620000Y-5380000D01*
X10270000Y-2620000D02*
X20540000Y-2620000D01*
X10270000Y-5380000D02*
X10270000Y-2620000D01*
X10270000Y-5380000D02*
X20540000Y-5380000D01*
X20540000Y-5380000D02*
X20540000Y-2620000D01*
%TO.C,U1*%
X66600000Y-11600000D02*
X66600000Y-30400000D01*
X66600000Y-30400000D02*
X99000000Y-30400000D01*
X99000000Y-11600000D02*
X66600000Y-11600000D01*
D17*
X97870000Y-30820000D02*
G75*
G02*
X97070000Y-30820000I-400000J0D01*
G01*
X97070000Y-30820000D02*
G75*
G02*
X97870000Y-30820000I400000J0D01*
G01*
D16*
%TO.C,R3*%
X81272936Y-34090000D02*
X82727064Y-34090000D01*
X81272936Y-35910000D02*
X82727064Y-35910000D01*
%TO.C,SJ1*%
X66600000Y-38000000D02*
X69400000Y-38000000D01*
X66600000Y-40000000D02*
X66600000Y-38000000D01*
X69400000Y-38000000D02*
X69400000Y-40000000D01*
X69400000Y-40000000D02*
X66600000Y-40000000D01*
%TD*%
M02*
