M48
; DRILL file {KiCad 9.0.3+dfsg-1} date 2026-08-24T07:44:06+0200
; FORMAT={-:-/ absolute / metric / decimal}
; #@! TF.CreationDate,2026-08-24T07:44:06+02:00
; #@! TF.GenerationSoftware,Kicad,Pcbnew,9.0.3+dfsg-1
; #@! TF.FileFunction,MixedPlating,1,2
FMAT,2
METRIC
; #@! TA.AperFunction,Plated,PTH,ViaDrill
T1C0.400
; #@! TA.AperFunction,Plated,PTH,ComponentDrill
T2C1.000
; #@! TA.AperFunction,NonPlated,NPTH,ComponentDrill
T3C3.200
%
G90
G05
T1
X10.0Y-30.0
X11.54Y-20.5
X14.08Y-21.5
X16.0Y-18.5
X18.54Y-19.5
X21.08Y-24.5
X23.62Y-10.0
X25.0Y-25.5
X26.16Y-9.0
X30.0Y-30.0
X30.08Y-26.5
X32.62Y-22.5
X40.0Y-30.0
X50.0Y-30.0
X52.0Y-23.5
X57.08Y-32.5
X63.0Y-7.0
X66.54Y-30.5
X69.46Y-32.5
X83.46Y-33.2
X90.46Y-33.2
T2
X9.0Y-4.0
X11.54Y-4.0
X14.08Y-4.0
X16.0Y-37.0
X16.62Y-4.0
X18.54Y-37.0
X19.16Y-4.0
X21.08Y-37.0
X23.62Y-37.0
X25.0Y-4.0
X26.16Y-37.0
X27.54Y-4.0
X28.7Y-37.0
X30.08Y-4.0
X32.62Y-4.0
X35.16Y-4.0
X52.0Y-4.0
X54.54Y-4.0
X57.08Y-4.0
X59.62Y-4.0
X69.53Y-13.38
X69.53Y-28.62
X72.07Y-13.38
X72.07Y-28.62
X74.61Y-13.38
X74.61Y-28.62
X77.15Y-13.38
X77.15Y-28.62
X79.69Y-13.38
X79.69Y-28.62
X82.23Y-13.38
X82.23Y-28.62
X84.77Y-13.38
X84.77Y-28.62
X87.31Y-13.38
X87.31Y-28.62
X89.85Y-13.38
X89.85Y-28.62
X92.39Y-13.38
X92.39Y-28.62
X94.93Y-13.38
X94.93Y-28.62
X97.47Y-13.38
X97.47Y-28.62
T3
X3.5Y-3.5
X3.5Y-38.5
X96.5Y-3.5
X96.5Y-38.5
M30
