  0
SECTION
  2
HEADER
  9
$ANGBASE
  50
0.0
  9
$ANGDIR
  70
1
  9
$MEASUREMENT
  70
1
  0
ENDSEC
  0
SECTION
  2
TABLES
  0
TABLE
  2
LTYPE
  70
4
  0
LTYPE
  5
40F
  2
CONTINUOUS
  70
0
  3
Solid line
  72
65
  73
0
  40
0.0
  0
LTYPE
  5
410
  2
DASHDOT
 70
0
  3
Dash Dot ____ _ ____ _
 72
65
 73
4
 40
2.0
 49
1.25
 49
-0.25
 49
0.25
 49
-0.25
  0
LTYPE
  5
411
  2
DASHED
 70
0
  3
Dashed __ __ __ __ __
 72
65
 73
2
 40
0.75
 49
0.5
 49
-0.25
  0
LTYPE
  5
43B
  2
DOTTED
 70
0
  3
Dotted .  .  .  .
 72
65
 73
2
 40
0.2
 49
0.0
 49
-0.2
  0
ENDTAB
  0
TABLE
  2
STYLE
  70
4
  0
STYLE
  2
KICAD
  70
0
  40
0
  41
1
  42
1
  50
0
  71
0
  3
isocp.shx
  0
STYLE
  2
KICADB
  70
0
  40
0
  41
1
  42
1
  50
0
  71
0
  3
isocp.shx
  0
STYLE
  2
KICADI
  70
0
  40
0
  41
1
  42
1
  50
15
  71
0
  3
isocp.shx
  0
STYLE
  2
KICADBI
  70
0
  40
0
  41
1
  42
1
  50
15
  71
0
  3
isocp.shx
  0
ENDTAB
  0
TABLE
  2
LAYER
  70
35
  0
LAYER
  2
BLACK
  70
0
  62
7
  6
CONTINUOUS
  0
LAYER
  2
GRAY1
  70
0
  62
251
  6
CONTINUOUS
  0
LAYER
  2
GRAY2
  70
0
  62
8
  6
CONTINUOUS
  0
LAYER
  2
GRAY3
  70
0
  62
9
  6
CONTINUOUS
  0
LAYER
  2
WHITE
  70
0
  62
7
  6
CONTINUOUS
  0
LAYER
  2
LYELLOW
  70
0
  62
51
  6
CONTINUOUS
  0
LAYER
  2
LORANGE
  70
0
  62
41
  6
CONTINUOUS
  0
LAYER
  2
BLUE1
  70
0
  62
178
  6
CONTINUOUS
  0
LAYER
  2
GREEN1
  70
0
  62
98
  6
CONTINUOUS
  0
LAYER
  2
CYAN1
  70
0
  62
138
  6
CONTINUOUS
  0
LAYER
  2
RED1
  70
0
  62
18
  6
CONTINUOUS
  0
LAYER
  2
MAGENTA1
  70
0
  62
228
  6
CONTINUOUS
  0
LAYER
  2
BROWN1
  70
0
  62
58
  6
CONTINUOUS
  0
LAYER
  2
ORANGE1
  70
0
  62
34
  6
CONTINUOUS
  0
LAYER
  2
BLUE2
  70
0
  62
5
  6
CONTINUOUS
  0
LAYER
  2
GREEN2
  70
0
  62
3
  6
CONTINUOUS
  0
LAYER
  2
CYAN2
  70
0
  62
4
  6
CONTINUOUS
  0
LAYER
  2
RED2
  70
0
  62
1
  6
CONTINUOUS
  0
LAYER
  2
MAGENTA2
  70
0
  62
6
  6
CONTINUOUS
  0
LAYER
  2
BROWN2
  70
0
  62
54
  6
CONTINUOUS
  0
LAYER
  2
ORANGE2
  70
0
  62
42
  6
CONTINUOUS
  0
LAYER
  2
BLUE3
  70
0
  62
171
  6
CONTINUOUS
  0
LAYER
  2
GREEN3
  70
0
  62
91
  6
CONTINUOUS
  0
LAYER
  2
CYAN3
  70
0
  62
131
  6
CONTINUOUS
  0
LAYER
  2
RED3
  70
0
  62
11
  6
CONTINUOUS
  0
LAYER
  2
MAGENTA3
  70
0
  62
221
  6
CONTINUOUS
  0
LAYER
  2
YELLOW3
  70
0
  62
2
  6
CONTINUOUS
  0
LAYER
  2
ORANGE3
  70
0
  62
32
  6
CONTINUOUS
  0
LAYER
  2
BLUE4
  70
0
  62
5
  6
CONTINUOUS
  0
LAYER
  2
GREEN4
  70
0
  62
3
  6
CONTINUOUS
  0
LAYER
  2
CYAN4
  70
0
  62
4
  6
CONTINUOUS
  0
LAYER
  2
RED4
  70
0
  62
1
  6
CONTINUOUS
  0
LAYER
  2
MAGENTA4
  70
0
  62
6
  6
CONTINUOUS
  0
LAYER
  2
YELLOW4
  70
0
  62
2
  6
CONTINUOUS
  0
LAYER
  2
ORANGE4
  70
0
  62
40
  6
CONTINUOUS
  0
ENDTAB
  0
ENDSEC
  0
SECTION
  2
ENTITIES
0
CIRCLE
8
WHITE
10
96.5
20
-3.5
40
3.1999999999999997
0
CIRCLE
8
WHITE
10
96.5
20
-38.5
40
3.1999999999999997
0
CIRCLE
8
WHITE
10
3.5
20
-38.5
40
3.1999999999999997
0
CIRCLE
8
WHITE
10
3.5
20
-3.5
40
3.1999999999999997
0
CIRCLE
8
BLACK
10
52.
20
-4.
40
0.5
0
CIRCLE
8
BLACK
10
54.5399999999999991
20
-4.
40
0.5
0
CIRCLE
8
BLACK
10
57.0799999999999983
20
-4.
40
0.5
0
CIRCLE
8
BLACK
10
59.6199999999999974
20
-4.
40
0.5
0
CIRCLE
8
BLACK
10
96.5
20
-3.5
40
1.5999989999999999
0
CIRCLE
8
BLACK
10
25.
20
-4.
40
0.5
0
CIRCLE
8
BLACK
10
27.5399999999999991
20
-4.
40
0.5
0
CIRCLE
8
BLACK
10
30.0799999999999983
20
-4.
40
0.5
0
CIRCLE
8
BLACK
10
32.6199999999999974
20
-4.
40
0.5
0
CIRCLE
8
BLACK
10
35.1599999999999966
20
-4.
40
0.5
0
CIRCLE
8
BLACK
10
16.
20
-37.
40
0.5
0
CIRCLE
8
BLACK
10
18.5399999999999991
20
-37.
40
0.5
0
CIRCLE
8
BLACK
10
21.0799999999999983
20
-37.
40
0.5
0
CIRCLE
8
BLACK
10
23.6199999999999974
20
-37.
40
0.5
0
CIRCLE
8
BLACK
10
26.1600000000000001
20
-37.
40
0.5
0
CIRCLE
8
BLACK
10
28.6999999999999993
20
-37.
40
0.5
0
CIRCLE
8
BLACK
10
96.5
20
-38.5
40
1.5999989999999999
0
CIRCLE
8
BLACK
10
9.
20
-4.
40
0.5
0
CIRCLE
8
BLACK
10
11.5399999999999991
20
-4.
40
0.5
0
CIRCLE
8
BLACK
10
14.0800000000000001
20
-4.
40
0.5
0
CIRCLE
8
BLACK
10
16.620000000000001
20
-4.
40
0.5
0
CIRCLE
8
BLACK
10
19.1600000000000001
20
-4.
40
0.5
0
CIRCLE
8
BLACK
10
79.6899999999999977
20
-13.379999999999999
40
0.5
0
CIRCLE
8
BLACK
10
82.2299999999999898
20
-13.379999999999999
40
0.5
0
CIRCLE
8
BLACK
10
84.769999999999996
20
-13.379999999999999
40
0.5
0
CIRCLE
8
BLACK
10
87.3100000000000023
20
-13.379999999999999
40
0.5
0
CIRCLE
8
BLACK
10
94.9299999999999926
20
-28.6199999999999974
40
0.5
0
CIRCLE
8
BLACK
10
97.4699999999999989
20
-28.6199999999999974
40
0.5
0
CIRCLE
8
BLACK
10
87.3100000000000023
20
-28.6199999999999974
40
0.5
0
CIRCLE
8
BLACK
10
84.769999999999996
20
-28.6199999999999974
40
0.5
0
CIRCLE
8
BLACK
10
82.2299999999999898
20
-28.6199999999999974
40
0.5
0
CIRCLE
8
BLACK
10
79.6899999999999977
20
-28.6199999999999974
40
0.5
0
CIRCLE
8
BLACK
10
77.1499999999999915
20
-28.6199999999999974
40
0.5
0
CIRCLE
8
BLACK
10
74.6099999999999994
20
-28.6199999999999974
40
0.5
0
CIRCLE
8
BLACK
10
72.0699999999999932
20
-28.6199999999999974
40
0.5
0
CIRCLE
8
BLACK
10
69.5300000000000011
20
-28.6199999999999974
40
0.5
0
CIRCLE
8
BLACK
10
69.5300000000000011
20
-13.379999999999999
40
0.5
0
CIRCLE
8
BLACK
10
74.6099999999999994
20
-13.379999999999999
40
0.5
0
CIRCLE
8
BLACK
10
77.1499999999999915
20
-13.379999999999999
40
0.5
0
CIRCLE
8
BLACK
10
72.0699999999999932
20
-13.379999999999999
40
0.5
0
CIRCLE
8
BLACK
10
92.3900000000000006
20
-28.6199999999999974
40
0.5
0
CIRCLE
8
BLACK
10
89.8499999999999943
20
-28.6199999999999974
40
0.5
0
CIRCLE
8
BLACK
10
94.9299999999999926
20
-13.379999999999999
40
0.5
0
CIRCLE
8
BLACK
10
97.4699999999999989
20
-13.379999999999999
40
0.5
0
CIRCLE
8
BLACK
10
92.3900000000000006
20
-13.379999999999999
40
0.5
0
CIRCLE
8
BLACK
10
89.8499999999999943
20
-13.379999999999999
40
0.5
0
CIRCLE
8
BLACK
10
3.5
20
-38.5
40
1.5999989999999999
0
CIRCLE
8
BLACK
10
3.5
20
-3.5
40
1.5999989999999999
  0
ENDSEC
  0
EOF
